<?xml version="1.0" encoding="UTF-8"?>
<svg width="84px" height="84px" viewBox="0 0 84 84" version="1.1" xmlns="http://www.w3.org/2000/svg" xmlns:xlink="http://www.w3.org/1999/xlink">
    <title>sad</title>
    <g id="Page-1" stroke="none" stroke-width="1" fill="none" fill-rule="evenodd">
        <g id="sad" fill="#E0E0E0" fill-rule="nonzero">
            <path d="M12.6397852,12.6374378 C-3.54685587,28.8240788 -3.54529096,55.1599402 12.6413501,71.3489286 C28.8240788,87.5340047 55.1599402,87.5340047 71.3473636,71.3450163 C87.5332222,55.1599402 87.5316573,28.8256437 71.3489286,12.642915 C55.1599402,-3.54685587 28.8240788,-3.54685587 12.6397852,12.6374378 Z M66.8200806,66.8192981 C53.1318175,80.5067787 30.8561138,80.5083436 17.1686331,66.8216455 C3.47724025,53.1302526 3.47880516,30.8545488 17.1686331,17.1662858 C30.8553313,3.47880516 53.1302526,3.47724025 66.8216455,17.1678507 C80.5099085,30.8553313 80.5083436,53.131035 66.8200806,66.8192981 Z M24.7899401,50.262556 C24.2766498,49.0724424 24.8235857,47.6914098 26.0129168,47.1765546 C27.2030305,46.6609169 28.5840631,47.2094177 29.0989183,48.3987489 C31.3633423,53.6325886 36.7122028,57.0159228 42.7292797,57.0159228 C48.886416,57.0159228 54.2689221,53.6357184 56.440234,48.404226 C56.8158123,47.5028382 57.6890317,46.9566848 58.608416,46.9559023 C58.9096611,46.9559023 59.2132536,47.013804 59.508239,47.1358669 C60.7061772,47.6342906 61.2734569,49.0082811 60.7750332,50.2046544 C57.8729086,57.19354 50.787781,61.7090863 42.7284973,61.7090863 C34.8390062,61.7098687 27.7969136,57.2170137 24.7899401,50.262556 Z M23.6864811,29.9727224 C23.1575417,29.0525556 23.4752183,27.8788735 24.395385,27.3507166 L31.4726881,23.2850818 C32.3928548,22.7577073 33.5665369,23.0753839 34.0954763,23.9947682 C34.6244157,24.914935 34.3067391,26.0886171 33.3865724,26.616774 L26.3092693,30.6808439 C25.3883201,31.2090008 24.214638,30.8921067 23.6864811,29.9727224 Z M34.6682332,30.0548801 C35.9890168,31.3764462 35.9890168,33.5203721 34.6682332,34.8395908 C33.3474496,36.1603744 31.2050886,36.1603744 29.8819576,34.8380259 C28.561174,33.5172423 28.561174,31.3748812 29.8819576,30.0548801 C31.2035237,28.7333141 33.3466672,28.7333141 34.6682332,30.0548801 Z M46.1711002,18.5660973 C46.2657772,17.5097834 47.1984633,16.729676 48.2539947,16.8243531 L56.3852643,17.5551658 C57.4415782,17.6498428 58.222468,18.5825288 58.1262261,19.6396252 C58.031549,20.6967215 57.0996454,21.4760464 56.0417666,21.380587 L47.9128444,20.6505567 C46.8557481,20.5558797 46.0748583,19.6216287 46.1711002,18.5660973 Z M54.8508705,29.9993258 C56.1716541,31.3201094 56.1716541,33.4624705 54.8508705,34.7824716 C53.5277396,36.1048201 51.3838136,36.1048201 50.064595,34.7840365 C48.7438114,33.4640354 48.7438114,31.3208919 50.064595,29.9993258 C51.3853785,28.6769773 53.5277396,28.6769773 54.8508705,29.9993258 Z" id="Shape"></path>
        </g>
    </g>
</svg>