<?xml version="1.0" encoding="UTF-8"?>
<svg width="100px" height="100px" viewBox="0 0 100 100" version="1.1" xmlns="http://www.w3.org/2000/svg" xmlns:xlink="http://www.w3.org/1999/xlink">
    <!-- Generator: Sketch 64 (93537) - https://sketch.com -->
    <title>Custom Preset 27 Copy 4</title>
    <desc>Created with Sketch.</desc>
    <g id="Custom-Preset-27-Copy-4" stroke="none" stroke-width="1" fill="none" fill-rule="evenodd">
        <g id="lockers" transform="translate(11.360000, 13.360000)" fill="#FFFFFF" fill-rule="nonzero">
            <g id="Group">
                <rect id="Rectangle" x="12.88" y="5.152" width="10.304" height="2.576"></rect>
                <rect id="Rectangle" x="12.88" y="10.304" width="10.304" height="2.576"></rect>
                <rect id="Rectangle" x="12.88" y="15.456" width="10.304" height="2.576"></rect>
                <rect id="Rectangle" x="33.488" y="5.152" width="10.304" height="2.576"></rect>
                <rect id="Rectangle" x="33.488" y="10.304" width="10.304" height="2.576"></rect>
                <rect id="Rectangle" x="33.488" y="15.456" width="10.304" height="2.576"></rect>
                <rect id="Rectangle" x="54.096" y="5.152" width="10.304" height="2.576"></rect>
                <rect id="Rectangle" x="54.096" y="10.304" width="10.304" height="2.576"></rect>
                <rect id="Rectangle" x="54.096" y="15.456" width="10.304" height="2.576"></rect>
                <path d="M15.456,25.76 C13.3219717,25.76 11.592,27.4899717 11.592,29.624 C11.592,31.7580283 13.3219717,33.488 15.456,33.488 C17.5900283,33.488 19.32,31.7580283 19.32,29.624 C19.32,27.4899717 17.5900283,25.76 15.456,25.76 L15.456,25.76 Z M15.456,30.912 C14.7446572,30.912 14.168,30.3353428 14.168,29.624 C14.168,28.9126572 14.7446572,28.336 15.456,28.336 C16.1673428,28.336 16.744,28.9126572 16.744,29.624 C16.744,30.3353428 16.1673428,30.912 15.456,30.912 Z" id="Shape"></path>
                <path d="M36.064,25.76 C33.9299717,25.76 32.2,27.4899717 32.2,29.624 C32.2,31.7580283 33.9299717,33.488 36.064,33.488 C38.1980283,33.488 39.928,31.7580283 39.928,29.624 C39.928,27.4899717 38.1980283,25.76 36.064,25.76 L36.064,25.76 Z M36.064,30.912 C35.3526572,30.912 34.776,30.3353428 34.776,29.624 C34.776,28.9126572 35.3526572,28.336 36.064,28.336 C36.7753428,28.336 37.352,28.9126572 37.352,29.624 C37.352,30.3353428 36.7753428,30.912 36.064,30.912 Z" id="Shape"></path>
                <path d="M56.672,25.76 C54.5379717,25.76 52.808,27.4899717 52.808,29.624 C52.808,31.7580283 54.5379717,33.488 56.672,33.488 C58.8060283,33.488 60.536,31.7580283 60.536,29.624 C60.536,27.4899717 58.8060283,25.76 56.672,25.76 L56.672,25.76 Z M56.672,30.912 C55.9606572,30.912 55.384,30.3353428 55.384,29.624 C55.384,28.9126572 55.9606572,28.336 56.672,28.336 C57.3833428,28.336 57.96,28.9126572 57.96,29.624 C57.96,30.3353428 57.3833428,30.912 56.672,30.912 Z" id="Shape"></path>
                <path d="M75.992,59.248 L70.84,59.248 L70.84,0 L6.44,0 L6.44,59.248 L1.288,59.248 C0.576657242,59.248 0,59.8246572 0,60.536 L0,65.688 C0,66.3993428 0.576657242,66.976 1.288,66.976 L11.592,66.976 L11.592,75.992 C11.592,76.7033428 12.1686572,77.28 12.88,77.28 L20.608,77.28 C21.3193428,77.28 21.896,76.7033428 21.896,75.992 L21.896,66.976 L55.384,66.976 L55.384,75.992 C55.384,76.7033428 55.9606572,77.28 56.672,77.28 L64.4,77.28 C65.1113428,77.28 65.688,76.7033428 65.688,75.992 L65.688,66.976 L75.992,66.976 C76.7033428,66.976 77.28,66.3993428 77.28,65.688 L77.28,60.536 C77.28,59.8246572 76.7033428,59.248 75.992,59.248 Z M50.232,2.576 L68.264,2.576 L68.264,59.248 L50.232,59.248 L50.232,2.576 Z M29.624,2.576 L47.656,2.576 L47.656,59.248 L29.624,59.248 L29.624,2.576 Z M9.016,2.576 L27.048,2.576 L27.048,59.248 L9.016,59.248 L9.016,2.576 Z M19.32,74.704 L14.168,74.704 L14.168,66.976 L19.32,66.976 L19.32,74.704 Z M63.112,74.704 L57.96,74.704 L57.96,66.976 L63.112,66.976 L63.112,74.704 Z M74.704,64.4 L2.576,64.4 L2.576,61.824 L74.704,61.824 L74.704,64.4 Z" id="Shape"></path>
            </g>
        </g>
    </g>
</svg>