<?xml version="1.0" encoding="UTF-8"?>
<svg width="856px" height="731px" viewBox="0 0 856 731" version="1.1" xmlns="http://www.w3.org/2000/svg" xmlns:xlink="http://www.w3.org/1999/xlink">
    <title>noData</title>
    <g id="Page-1" stroke="none" stroke-width="1" fill="none" fill-rule="evenodd">
        <g id="noData" fill-rule="nonzero">
            <g id="Group-2" transform="translate(0.938430, 0.605500)">
                <g id="Group" transform="translate(708.730843, 170.803560)">
                    <polygon id="Path" fill="#B19095" points="46.271498 543.65299 30.693598 543.65299 29.801798 484.49779 46.271498 483.56569"></polygon>
                    <path d="M50.259781,558.768311 L-3.55271368e-14,558.767687 L-3.55271368e-14,558.117687 C0.0124296577,547.316714 8.76532766,538.563939 19.5663,538.55166 L50.259781,538.55166 L50.259781,558.768311 Z" id="Path" fill="#59636B"></path>
                    <polygon id="Path" fill="#B19095" points="135.447598 525.70519 121.167098 531.93089 96.710198 478.06019 111.436598 470.62549"></polygon>
                    <path d="M99.071674,558.052297 L98.812051,557.45626 C96.7383131,552.699313 96.6392203,547.313405 98.5365723,542.483397 C100.433924,537.653388 104.172297,533.774936 108.929275,531.701271 L137.065253,519.435693 L145.143921,537.967687 L99.071674,558.052297 Z" id="Path" fill="#59636B"></path>
                    <circle id="Oval" fill="#B19095" cx="73.953334" cy="42.9552206" r="33.754617"></circle>
                    <polygon id="Path" fill="#59636B" points="134.373798 497.46659 90.745798 390.88869 111.935798 291.16569 71.735898 288.98429 49.609898 400.54899 105.391598 511.17769"></polygon>
                    <polygon id="Path" fill="#59636B" points="86.693698 271.22109 66.126398 398.67829 59.942298 520.84189 24.437998 520.52989 23.121098 286.80289"></polygon>
                    <polygon id="Path" fill="#CBCBCB" points="114.908898 278.48939 112.886098 296.95069 12.240098 301.45389 19.054698 273.69499"></polygon>
                    <path d="M19.207045,313.339712 C17.2635786,310.891173 16.3808458,307.766695 16.7557336,304.663171 C17.1306215,301.559647 18.7319466,298.735229 21.202545,296.819884 C21.7150005,296.422909 22.2586965,296.067994 22.828325,295.758603 L62.303423,147.416149 L85.703046,157.699474 L39.329576,301.050396 C41.6044802,305.995596 40.1754505,311.856171 35.879571,315.199167 C30.7508099,319.250429 23.3172283,318.421375 19.207045,313.339712 L19.207045,313.339712 Z" id="Path" fill="#B19095"></path>
                    <path d="M44.157152,109.20001 L48.812452,99.5832076 C48.812452,99.5832076 71.737198,79.7650196 95.917029,91.6448226 L99.644129,102.746823 L119.364557,134.592689 L114.909457,281.685089 C114.909457,281.685089 32.63351,275.428683 12.240657,282.882987 L21.20456,166.326183 L44.157152,109.20001 Z" id="Path" fill="#7897A5"></path>
                    <path d="M48.439274,295.878229 L13.700466,286.161236 L45.827223,185.754644 L48.736038,129.695953 C49.07586,123.969946 51.825785,118.655998 56.304027,115.07159 C61.6977978,110.700451 68.6708504,108.778191 75.542506,109.768123 C86.894327,111.322663 95.244357,120.003023 95.397653,130.408223 L95.397653,130.459001 L95.390672,130.509155 L84.233708,209.083612 L80.656173,221.874143 L48.439274,295.878229 Z" id="Path" fill="#CBCBCB"></path>
                    <path d="M89.253359,69.4131196 L96.937399,71.3556966 L108.583293,58.9749516 C108.583293,58.9749516 129.986493,9.32700255 82.681183,1.72956855 C35.375873,-5.86786545 45.706726,13.3126986 39.382083,25.3408576 L58.712017,30.3666576 L76.109007,48.1501896 C76.109007,48.1501896 87.461101,39.8352466 90.799761,47.3769886 C94.138421,54.9187306 89.253359,69.4131196 89.253359,69.4131196 Z" id="Path" fill="#2F2E41"></path>
                </g>
                <g id="Group-3" transform="translate(0.910028, 0.243947)">
                    <polygon id="Path" fill="#FFFFFF" points="527.9222 527.921875 0 527.921875 0 5.68434189e-14 527.9222 5.68434189e-14"></polygon>
                    <path d="M527.9222,527.921875 L0,527.921875 L0,0 L527.9222,0 L527.9222,527.921875 Z M7.8,520.121875 L520.1222,520.121875 L520.1222,7.8 L7.8,7.8 L7.8,520.121875 Z" id="Shape" fill="#B7B7B7"></path>
                    <rect id="Rectangle" fill="#B7B7B7" x="108.850183" y="226.946902" width="338.573079" height="11.95181"></rect>
                    <rect id="Rectangle" fill="#B7B7B7" x="108.850183" y="258.021569" width="338.573079" height="11.95181"></rect>
                    <rect id="Rectangle" fill="#B7B7B7" x="108.850183" y="289.096249" width="338.573079" height="11.95181"></rect>
                    <circle id="Oval" fill="#B7B7B7" cx="88.298964" cy="234.673816" r="7.8"></circle>
                    <rect id="Rectangle" fill="#B7B7B7" x="108.850183" y="93.046902" width="338.573079" height="11.95181"></rect>
                    <rect id="Rectangle" fill="#B7B7B7" x="108.850183" y="124.121569" width="338.573079" height="11.95181"></rect>
                    <rect id="Rectangle" fill="#B7B7B7" x="108.850183" y="155.196249" width="338.573079" height="11.95181"></rect>
                    <circle id="Oval" fill="#B7B7B7" cx="88.298964" cy="99.473816" r="7.8"></circle>
                    <rect id="Rectangle" fill="#B7B7B7" x="108.850183" y="362.146902" width="338.573079" height="11.95181"></rect>
                    <rect id="Rectangle" fill="#B7B7B7" x="108.850183" y="393.221569" width="338.573079" height="11.95181"></rect>
                    <rect id="Rectangle" fill="#B7B7B7" x="108.850183" y="424.296249" width="338.573079" height="11.95181"></rect>
                    <circle id="Oval" fill="#B7B7B7" cx="88.298964" cy="368.573816" r="7.8"></circle>
                </g>
            </g>
        </g>
    </g>
</svg>