<?xml version="1.0" encoding="UTF-8"?>
<svg width="578px" height="570px" viewBox="0 0 578 570" version="1.1" xmlns="http://www.w3.org/2000/svg" xmlns:xlink="http://www.w3.org/1999/xlink">
    <title>noListings</title>
    <g id="Page-1" stroke="none" stroke-width="1" fill="none" fill-rule="evenodd">
        <g id="noListings" fill-rule="nonzero">
            <path d="M559.99463,340.90136 L17.65445,340.90136 C8.54601454,340.891077 1.16473338,333.509795 1.15445,324.40136 L1.15445,18.60156 L576.49463,18.60156 L576.49463,324.40136 C576.484341,333.509793 569.103063,340.891071 559.99463,340.90136 Z" id="Path" fill="#B7B7B7"></path>
            <path d="M538.41162,309.31787 L39.23706,309.31787 C34.5448282,309.31259 30.7423395,305.510102 30.73706,300.81787 L30.73706,58.68405 C30.7423395,53.9918182 34.5448282,50.1893295 39.23706,50.18405 L538.41162,50.18405 C543.103868,50.189291 546.906379,53.9918022 546.91162,58.68405 L546.91162,300.81787 C546.906379,305.510118 543.103868,309.312629 538.41162,309.31787 L538.41162,309.31787 Z" id="Path" fill="#FFFFFF"></path>
            <path d="M577.64917,29.74756 L0,29.74756 L0,16.5 C0.010288877,7.39156682 7.39156682,0.010288877 16.5,-2.84217094e-14 L561.14917,-2.84217094e-14 C570.257603,0.010288877 577.638881,7.39156682 577.64917,16.5 L577.64917,29.74756 Z" id="Path" fill="#429DA8"></path>
            <path d="M157.31128,216.60888 L68.46582,216.60888 C63.7735882,216.6036 59.9710995,212.801112 59.96582,208.10888 L59.96582,149.70215 C59.9710995,145.009918 63.7735882,141.20743 68.46582,141.20215 L157.31128,141.20215 C162.00353,141.207386 165.806044,145.0099 165.81128,149.70215 L165.81128,208.10888 C165.806044,212.80113 162.00353,216.603644 157.31128,216.60888 Z" id="Path" fill="#E6E6E6"></path>
            <path d="M512.95532,150.65771 L232.24045,150.65771 C229.629369,150.65771 227.51267,148.541011 227.51267,145.92993 C227.51267,143.318849 229.629369,141.20215 232.24045,141.20215 L512.95532,141.20215 C515.566401,141.20215 517.6831,143.318849 517.6831,145.92993 C517.6831,148.541011 515.566401,150.65771 512.95532,150.65771 Z" id="Path" fill="#E6E6E6"></path>
            <path d="M512.95532,184.47851 L232.24045,184.47851 C229.629502,184.47851 227.51291,182.361918 227.51291,179.75097 C227.51291,177.140022 229.629502,175.02343 232.24045,175.02343 L512.95532,175.02343 C515.566268,175.02343 517.68286,177.140022 517.68286,179.75097 C517.68286,182.361918 515.566268,184.47851 512.95532,184.47851 Z" id="Path" fill="#E6E6E6"></path>
            <path d="M512.95532,218.2998 L232.24045,218.2998 C229.629369,218.2998 227.51267,216.183101 227.51267,213.57202 C227.51267,210.960939 229.629369,208.84424 232.24045,208.84424 L512.95532,208.84424 C515.566401,208.84424 517.683099,210.960939 517.683099,213.57202 C517.683099,216.183101 515.566401,218.2998 512.95532,218.2998 L512.95532,218.2998 Z" id="Path" fill="#E6E6E6"></path>
            <polygon id="Path" fill="#B19095" points="419.548 556.311 407.288 556.311 401.456 509.023 419.55 509.023"></polygon>
            <path d="M398.53106,552.80763 L422.17493,552.80763 L422.17493,567.6945 L383.64421,567.6945 L383.64421,567.6945 C383.64421,563.746259 385.212637,559.959727 388.004463,557.167897 C390.796289,554.376068 394.582819,552.80763 398.53106,552.80763 L398.53106,552.80763 Z" id="Path" fill="#59636B"></path>
            <polygon id="Path" fill="#B19095" points="470.548 556.311 458.288 556.311 452.456 509.023 470.55 509.023"></polygon>
            <path d="M449.53106,552.80763 L473.17493,552.80763 L473.17493,567.6945 L434.64421,567.6945 L434.64421,567.6945 C434.64421,563.746259 436.212637,559.959727 439.004463,557.167897 C441.796289,554.376068 445.582819,552.80763 449.53106,552.80763 L449.53106,552.80763 Z" id="Path" fill="#59636B"></path>
            <path d="M468.98671,545.44269 L456.50698,545.44269 C454.170933,545.43007 452.228217,543.641774 452.0226,541.31476 L441.44668,413.91632 C441.382686,413.149093 440.748216,412.554904 439.978445,412.541299 C439.208674,412.527695 438.553604,413.099094 438.46254,413.86358 L423.27334,541.47491 C423.002699,543.737815 421.083862,545.44269 418.80483,545.44269 L403.48083,545.44269 C401.007106,545.438615 398.999346,543.440773 398.98302,540.9671 C398.94933,532.95147 398.89464,524.87726 398.83996,516.8021 C398.35363,444.88023 397.8507,370.5101 412.86852,341.37437 L413.00552,341.10874 L467.19791,340.18198 L467.33391,340.47984 C483.73015,376.30991 478.75359,456.35484 473.94085,533.76304 L473.47771,541.22204 C473.326866,543.592585 471.362047,545.439125 468.98671,545.44269 L468.98671,545.44269 Z" id="Path" fill="#59636B"></path>
            <circle id="Oval" fill="#B19095" cx="443.31365" cy="219.86366" r="24.56103"></circle>
            <path d="M409.82851,345.62335 L410.50527,317.46319 L405.63295,295.49151 C403.136808,284.45633 406.063284,272.89269 413.5082,264.37335 C420.751532,255.896504 431.61122,251.393767 442.72768,252.25812 L442.72793,252.25812 C443.08169,252.285453 443.436357,252.315073 443.79193,252.34698 C453.253294,253.198699 461.962822,257.857198 467.92328,265.25421 C474.008278,272.6927 476.810544,282.283957 475.68744,291.82843 L469.79315,343.34503 L409.82851,345.62335 Z" id="Path" fill="#7897A5"></path>
            <path d="M388.9647,396.09313 C391.310345,394.261673 392.724292,391.485307 392.826077,388.511097 C392.927862,385.536887 391.707029,382.670352 389.49208,380.68282 L403.32036,347.73198 L385.06974,351.15963 L374.7362,381.92481 C371.574476,385.955586 371.927235,391.714119 375.55731,395.32884 C379.187385,398.943562 384.947361,399.27191 388.9647,396.09313 Z" id="Path" fill="#B19095"></path>
            <path d="M493.30825,400.04271 C491.070618,398.080754 489.816933,395.228439 489.884534,392.253259 C489.952134,389.278079 491.334076,386.485649 493.65851,384.62735 L481.72745,350.94311 L499.75345,355.40361 L508.31982,386.7069 C511.247074,390.911038 510.567242,396.640163 506.737386,400.042486 C502.907529,403.444808 497.13821,403.444905 493.30824,400.04271 L493.30825,400.04271 Z" id="Path" fill="#B19095"></path>
            <path d="M391.16005,379.94659 C390.526212,379.94659 389.899503,379.812882 389.32094,379.55401 L378.80019,374.84112 C376.704132,373.905217 375.650307,371.540085 376.3561,369.35577 L394.0038,314.53644 L400.82387,273.23663 C401.483954,269.240936 404.269495,265.922721 408.090446,264.58048 C411.911397,263.238238 416.160173,264.085406 419.174128,266.790466 C422.188084,269.495526 423.487958,273.628335 422.56508,277.57163 L412.19961,321.86363 L395.46499,376.75905 C394.888239,378.653432 393.140283,379.94659 391.16005,379.94659 L391.16005,379.94659 Z" id="Path" fill="#7897A5"></path>
            <path d="M491.52236,379.946591 C489.542127,379.946591 487.794183,378.653437 487.21745,376.75905 L470.49135,321.89483 L460.11735,277.57159 C459.194347,273.628247 460.494173,269.495327 463.508161,266.790189 C466.522149,264.085051 470.771013,263.237866 474.592023,264.580168 C478.413034,265.922469 481.198573,269.240804 481.85856,273.23659 L488.69621,314.60866 L506.32658,369.35573 C507.032153,371.540101 505.978264,373.905135 503.88224,374.84108 L493.36145,379.55405 C492.78289,379.812906 492.156188,379.946591 491.52236,379.946591 L491.52236,379.946591 Z" id="Path" fill="#7897A5"></path>
            <path d="M443.81859,192.71446 C436.99267,189.75758 428.07559,193.43686 425.32084,200.34682 C423.60638,204.64731 424.12953,209.49782 425.07477,214.02998 C426.02001,218.56214 427.36764,223.08498 427.22277,227.71238 C427.0779,232.33978 425.08477,237.25098 420.97984,239.39174 C418.52706,240.67087 415.65804,240.81311 412.99903,241.57601 C410.34002,242.33891 407.59557,244.12254 407.21262,246.86219 C406.6333,251.0067 411.66062,254.16337 411.62709,258.34804 C411.59153,262.78192 406.05048,265.41498 405.33229,269.79046 C405.080845,272.394762 406.187516,274.945131 408.26129,276.54046 C410.319044,278.085895 412.656926,279.217687 415.14551,279.87318 C434.29361,285.993445 454.68155,287.155115 474.40091,283.24945 C478.31918,282.4679 482.35191,281.41111 485.39638,278.82372 C488.44085,276.23633 490.18217,271.70719 488.43219,268.11536 C485.80867,262.73061 477.4789,262.42372 474.57593,257.18436 C472.8346,254.04154 473.63622,250.18316 474.00286,246.60893 C474.94973,237.37835 477.1343,226.59502 474.84118,217.60381 C472.7694,209.48048 468.27078,198.98349 461.84118,193.60381 C457.22765,189.74365 448.41962,191.5024 442.52323,192.69322 L443.81859,192.71446 Z" id="Path" fill="#59636B"></path>
            <path d="M293.4629,569.0581 C292.910615,569.0581 292.4629,568.610385 292.4629,568.0581 C292.4629,567.68991 292.796233,568.023244 293.4629,569.0581 Z" id="Path" fill="#CCCCCC"></path>
        </g>
    </g>
</svg>