<?xml version="1.0" encoding="UTF-8"?>
<svg width="669px" height="620px" viewBox="0 0 669 620" version="1.1" xmlns="http://www.w3.org/2000/svg" xmlns:xlink="http://www.w3.org/1999/xlink">
    <title>nothingHere</title>
    <g id="Page-1" stroke="none" stroke-width="1" fill="none" fill-rule="evenodd">
        <g id="nothingHere" fill-rule="nonzero">
            <path d="M22.86133,444.24891 C25.4835692,442.451292 27.1748916,439.584511 27.4801947,436.419964 C27.7854978,433.255416 26.67342,430.118174 24.4432,427.85241 L28.61039,334.83447 L7.39487,337.21577 L8.62742,428.20045 C4.98954423,432.28913 4.9847037,438.452547 8.61615276,442.546936 C12.2476018,446.641325 18.3674955,447.372513 22.86133,444.24891 L22.86133,444.24891 Z" id="Path" fill="#B19095"></path>
            <polygon id="Path" fill="#B19095" points="61.564 601.708 73.639 603.83 85.573 558.267 69.752 555.134"></polygon>
            <path d="M58.0031885,601.026102 L96.5339285,601.026102 L96.5339285,615.912972 L72.8900485,615.912972 C68.9418077,615.912972 65.1552766,614.344539 62.3634488,611.552712 C59.571621,608.760884 58.0031885,604.974353 58.0031885,601.026102 L58.0031885,601.026102 L58.0031885,601.026102 Z" id="Path" fill="#59636B" transform="translate(77.268558, 608.469537) rotate(-170.029220) translate(-77.268558, -608.469537) "></path>
            <polygon id="Path" fill="#B19095" points="28.422 607.752 40.682 607.751 46.514 560.463 28.42 560.464"></polygon>
            <path d="M25.7947873,604.248487 L64.3255273,604.248487 L64.3255273,619.135357 L40.6816473,619.135357 C32.4598616,619.135357 25.7947873,612.470283 25.7947873,604.248487 L25.7947873,604.248487 L25.7947873,604.248487 Z" id="Path" fill="#59636B" transform="translate(45.060157, 611.691922) rotate(179.997380) translate(-45.060157, -611.691922) "></path>
            <path d="M80.57443,594.8025 C80.3830816,594.802745 80.1918932,594.791428 80.00191,594.76861 L65.57191,593.5812 C64.2441988,593.425016 63.0386673,592.731063 62.2368045,591.661378 C61.4349417,590.591692 61.1069447,589.239918 61.3294,587.92169 L74.65408,513.24069 L65.65056,465.76669 C65.498738,464.969189 64.782281,464.405628 63.9714578,464.445917 C63.1606345,464.486207 62.5035748,465.118017 62.43156,465.92664 L51.17581,592.55435 C50.9188072,595.195651 48.6147521,597.158074 45.96621,596.9915 L32.37142,596.48518 C29.9058545,596.310587 27.9586731,594.322822 27.83497,591.85418 L26.92112,440.08657 L97.40228,431.27689 L102.32588,507.31746 L102.30629,507.39796 L85.31558,591.07296 C84.7829108,593.259803 82.8252101,594.799793 80.57443,594.8025 L80.57443,594.8025 Z" id="Path" fill="#59636B"></path>
            <circle id="Oval" fill="#B19095" cx="50.15865" cy="249.99669" r="24.56103"></circle>
            <path d="M73.30117,451.179279 C69.4598521,451.201875 65.6923229,450.12415 62.44425,448.07323 C50.54689,440.63738 37.03366,443.59266 30.03739,446.01623 C28.6309151,446.508745 27.0764872,446.331633 25.81686,445.53534 C24.5716218,444.753577 23.7522414,443.445298 23.59246,441.98371 L10.86992,328.35816 C8.73792,309.32048 20.20578,291.42148 38.13762,285.79851 L38.13762,285.79851 C38.8113,285.587177 39.4963633,285.386803 40.19281,285.19739 C51.4889174,282.134662 63.5613628,284.229927 73.16481,290.91993 C82.9469324,297.683597 89.2325207,308.431163 90.33161,320.273 L101.04209,434.6601 C101.189967,436.161428 100.624522,437.645103 99.51494,438.6672 C95.76046,442.14044 84.86328,451.179279 73.30117,451.179279 Z" id="Path" fill="#7897A5"></path>
            <path d="M34.56005,352.72437 L5.85668,349.56837 C4.20410991,349.386644 2.71248325,348.494599 1.77048992,347.124687 C0.828496582,345.754774 0.529440474,344.042682 0.95125,342.43455 L8.25731,314.58818 C9.26331331,305.893796 17.1151081,299.652958 25.8122301,300.635013 C34.5093522,301.617069 40.7717896,309.451646 39.81369,318.15144 L40.8983,346.82675 C40.9606226,348.488115 40.2967144,350.094328 39.0795765,351.226844 C37.8624386,352.35936 36.2126272,352.906003 34.56005,352.72433 L34.56005,352.72437 Z" id="Path" fill="#7897A5"></path>
            <path d="M100.92724,440.26582 C103.313744,438.165298 104.647266,435.115584 104.568976,431.937304 C104.490687,428.759024 103.008629,425.778664 100.5216,423.79819 L93.44867,330.956 L72.66016,335.63565 L84.86304,426.04971 C81.7444379,430.546999 82.4824084,436.666058 86.5808039,440.292963 C90.6791993,443.919868 96.8425876,443.908215 100.92724,440.26584 L100.92724,440.26582 Z" id="Path" fill="#B19095"></path>
            <path d="M64.69009,346.888 C63.4724304,345.755977 62.8084937,344.14955 62.87164,342.48817 L63.95625,313.81285 C62.9981504,305.113056 69.2605878,297.278479 77.9577099,296.296423 C86.6548319,295.314368 94.5066267,301.555206 95.51263,310.24959 L102.81869,338.09596 C103.240496,339.704093 102.941438,341.416184 101.999446,342.786097 C101.057454,344.156011 99.5658294,345.048058 97.91326,345.22979 L69.20989,348.38579 C67.5570827,348.568345 65.9067893,348.021464 64.69009,346.888 L64.69009,346.888 Z" id="Path" fill="#7897A5"></path>
            <path d="M48.69784,275.48307 C48.2612504,275.48307 47.8261707,275.431795 47.40121,275.3317 L47.27646,275.30143 C25.68197,271.99772 20.90976,259.4899 19.86215,254.26627 C18.77792,248.85807 20.01254,243.63785 22.80234,241.61051 C21.28134,236.80778 21.52548,232.54951 23.52963,228.9484 C27.02499,222.66813 34.61069,220.54459 35.62802,220.28483 C41.68613,215.81559 48.93442,218.79899 50.25326,219.40397 C61.97177,215.06852 66.45077,218.6774 67.26083,219.48307 C72.49911,220.42399 75.69198,222.44742 76.75204,225.49869 C78.74304,231.22969 72.44662,238.35856 72.17758,238.65934 L72.03793,238.8151 L62.6578,239.26188 C60.8577642,239.347752 59.1787232,240.193452 58.038187,241.588686 C56.8976507,242.983921 56.4027694,244.797613 56.6766,246.57877 L56.6766,246.57877 C56.9304809,247.715175 57.2511881,248.835612 57.63705,249.93424 C59.23905,254.94059 60.4393,259.21744 58.8912,260.84342 C58.1755312,261.48545 57.1559683,261.66219 56.26596,261.2985 C54.79941,260.9069 53.80356,260.98893 53.30746,261.54313 C52.5372,262.4025 52.77231,264.57779 53.96957,267.66862 C54.7351795,269.660539 54.3323146,271.912777 52.92367,273.51578 C51.8705355,274.757972 50.3263653,275.476844 48.69784,275.48307 L48.69784,275.48307 Z" id="Path" fill="#2F2E41"></path>
            <path d="M217.75984,140.16846 C209.479452,140.177829 202.769209,146.888072 202.75984,155.16846 L202.75984,337 C202.769209,345.280388 209.479452,351.990631 217.75984,352 L338.75984,352 C347.040228,351.990631 353.750471,345.280388 353.75984,337 L353.75984,155.16846 C353.750471,146.888072 347.040228,140.177829 338.75984,140.16846 L217.75984,140.16846 Z" id="Shape" fill="#FFFFFF"></path>
            <path d="M633.75984,456 L512.75984,456 C503.375379,455.989435 495.770405,448.384461 495.75984,439 L495.75984,257.16846 C495.770399,247.783996 503.375376,240.179019 512.75984,240.16846 L633.75984,240.16846 C643.144304,240.179019 650.749281,247.783996 650.75984,257.16846 L650.75984,439 C650.749275,448.384461 643.144301,455.989435 633.75984,456 Z" id="Shape" fill="#FFFFFF"></path>
            <path d="M609.25992,285.08434 L537.25992,285.08434 C532.841642,285.08434 529.25992,281.502618 529.25992,277.08434 C529.25992,272.666062 532.841642,269.08434 537.25992,269.08434 L609.25992,269.08434 C613.678198,269.08434 617.25992,272.666062 617.25992,277.08434 C617.25992,281.502618 613.678198,285.08434 609.25992,285.08434 Z" id="Path" fill="#B7B7B7"></path>
            <path d="M609.25992,315.08434 L537.25992,315.08434 C532.841642,315.08434 529.25992,311.502618 529.25992,307.08434 C529.25992,302.666062 532.841642,299.08434 537.25992,299.08434 L609.25992,299.08434 C613.678198,299.08434 617.25992,302.666062 617.25992,307.08434 C617.25992,311.502618 613.678198,315.08434 609.25992,315.08434 Z" id="Path" fill="#B7B7B7"></path>
            <path d="M615.2598,391.584 L531.2598,391.584 C526.567694,391.578418 522.765382,387.776106 522.7598,383.084 L522.7598,343.084 C522.765387,338.391896 526.567696,334.589587 531.2598,334.584 L615.2598,334.584 C619.951906,334.589582 623.754218,338.391894 623.7598,343.084 L623.7598,383.084 C623.754224,387.776109 619.951909,391.578424 615.2598,391.584 L615.2598,391.584 Z" id="Path" fill="#B7B7B7"></path>
            <path d="M609.25992,427.08434 L537.25992,427.08434 C532.841642,427.08434 529.25992,423.502618 529.25992,419.08434 C529.25992,414.666062 532.841642,411.08434 537.25992,411.08434 L609.25992,411.08434 C613.678198,411.08434 617.25992,414.666062 617.25992,419.08434 C617.25992,423.502618 613.678198,427.08434 609.25992,427.08434 Z" id="Path" fill="#B7B7B7"></path>
            <path d="M438.75984,22.16846 C430.479452,22.1778285 423.769209,28.8880724 423.75984,37.16846 L423.75984,150 C423.769209,158.280388 430.479452,164.990631 438.75984,165 L559.75984,165 C568.040228,164.990631 574.750471,158.280388 574.75984,150 L574.75984,37.16846 C574.750471,28.8880724 568.040228,22.1778285 559.75984,22.16846 L438.75984,22.16846 Z" id="Shape" fill="#FFFFFF"></path>
            <path d="M535.25992,131.58434 L463.25992,131.58434 C458.841642,131.58434 455.25992,128.002618 455.25992,123.58434 C455.25992,119.166062 458.841642,115.58434 463.25992,115.58434 L535.25992,115.58434 C539.678198,115.58434 543.25992,119.166062 543.25992,123.58434 C543.25992,128.002618 539.678198,131.58434 535.25992,131.58434 Z" id="Path" fill="#B7B7B7"></path>
            <path d="M535.25992,101.58434 L463.25992,101.58434 C458.841642,101.58434 455.25992,98.002618 455.25992,93.58434 C455.25992,89.166062 458.841642,85.58434 463.25992,85.58434 L535.25992,85.58434 C539.678198,85.58434 543.25992,89.166062 543.25992,93.58434 C543.25992,98.002618 539.678198,101.58434 535.25992,101.58434 Z" id="Path" fill="#B7B7B7"></path>
            <path d="M535.25992,71.58434 L463.25992,71.58434 C458.841642,71.58434 455.25992,68.002618 455.25992,63.58434 C455.25992,59.166062 458.841642,55.58434 463.25992,55.58434 L535.25992,55.58434 C539.678198,55.58434 543.25992,59.166062 543.25992,63.58434 C543.25992,68.002618 539.678198,71.58434 535.25992,71.58434 Z" id="Path" fill="#B7B7B7"></path>
            <circle id="Oval" fill="#B7B7B7" cx="345.75984" cy="143" r="23"></circle>
            <circle id="Oval" fill="#429DA8" cx="645.75984" cy="246" r="23"></circle>
            <path d="M643.48001,254.774009 C642.962539,254.774975 642.458785,254.607644 642.04474,254.29725 L642.01907,254.27797 L636.61392,250.1396 C635.929443,249.619 635.575599,248.772128 635.686228,247.919312 C635.796858,247.066497 636.355071,246.33794 637.149725,246.009217 C637.944379,245.680493 638.85415,245.801791 639.53492,246.32723 L643.03597,249.01179 L651.30951,238.22189 C651.69703,237.716463 652.269467,237.385688 652.900879,237.302338 C653.532291,237.218989 654.170951,237.389893 654.67635,237.77745 L654.62491,237.84729 L654.67769,237.77846 C655.728754,238.586275 655.927574,240.092448 655.12213,241.14533 L645.39052,253.8368 C644.934319,254.429598 644.228024,254.77607 643.48001,254.774009 Z" id="Path" fill="#FFFFFF"></path>
            <circle id="Oval" fill="#429DA8" cx="572.75984" cy="23" r="23"></circle>
            <path d="M570.48001,31.7740092 C569.962539,31.774975 569.458785,31.6076443 569.04474,31.29725 L569.01907,31.27797 L563.61392,27.1396 C562.929443,26.6189998 562.575599,25.7721282 562.686228,24.9193125 C562.796858,24.0664968 563.355071,23.3379397 564.149725,23.0092165 C564.944379,22.6804933 565.85415,22.8017914 566.53492,23.32723 L570.03597,26.01179 L578.30951,15.22189 C578.69703,14.7164629 579.269467,14.385688 579.900879,14.3023384 C580.532291,14.2189888 581.170951,14.3898927 581.67635,14.77745 L581.62491,14.84729 L581.67769,14.77846 C582.728754,15.5862754 582.927574,17.0924482 582.12213,18.14533 L572.39052,30.8368 C571.934319,31.4295977 571.228024,31.7760704 570.48001,31.7740092 L570.48001,31.7740092 Z" id="Path" fill="#FFFFFF"></path>
        </g>
    </g>
</svg>