<?xml version="1.0" encoding="UTF-8"?>
<svg width="672px" height="510px" viewBox="0 0 672 510" version="1.1" xmlns="http://www.w3.org/2000/svg" xmlns:xlink="http://www.w3.org/1999/xlink">
    <title>noUserChoice</title>
    <g id="Page-1" stroke="none" stroke-width="1" fill="none" fill-rule="evenodd">
        <g id="noUserChoice" fill-rule="nonzero">
            <path d="M647.35433,460.6811 C634.019045,460.6811 623.208571,471.491395 623.208571,484.82668 C623.208571,498.161965 634.018865,508.97244 647.35415,508.97244 L647.35433,508.97244 C660.689615,508.97244 671.5,498.162055 671.5,484.82677 C671.5,471.491485 660.689615,460.6811 647.35433,460.6811 L647.35433,460.6811 Z" id="Path" fill="#B7B7B7"></path>
            <path d="M645.06327,494.854634 C644.427638,494.855697 643.808893,494.65006 643.30035,494.26873 L643.26881,494.24508 L636.62874,489.16563 C635.79159,488.524395 635.360259,487.48516 635.497304,486.439588 C635.634349,485.394015 636.318938,484.501046 637.293066,484.097218 C638.267193,483.69339 639.382781,483.84009 640.21939,484.48203 L644.5203,487.78017 L654.68357,474.521 C655.159521,473.900167 655.862606,473.493837 656.63815,473.391398 C657.413695,473.28896 658.198168,473.498806 658.81899,473.97477 L658.81985,473.97541 L658.75677,474.06299 L658.82156,473.97541 C660.112856,474.967843 660.356945,476.818341 659.36715,478.11166 L647.41293,493.70037 C646.852365,494.428393 645.984708,494.853806 645.06588,494.85113 L645.06327,494.854634 Z" id="eddccf5f-d02a-4888-86ae-be237287dc7c" fill="#FFFFFF"></path>
            <polygon id="Path" fill="#B19095" points="594.783 499.316 583.351 499.315 577.915 455.219 594.787 455.221"></polygon>
            <path d="M575.185,496.04845 L597.23281,496.04845 L597.23281,509.9304 L561.30307,509.9304 L561.30307,509.9304 C561.30307,506.24868 562.765619,502.717751 565.368986,500.11438 C567.972354,497.511009 571.50328,496.04845 575.185,496.04845 L575.185,496.04845 Z" id="Path" fill="#59636B"></path>
            <polygon id="Path" fill="#B19095" points="549.283 499.316 537.851 499.315 532.415 455.219 549.287 455.221"></polygon>
            <path d="M529.685,496.04845 L551.73281,496.04845 L551.73281,509.9304 L515.80307,509.9304 L515.80307,509.9304 C515.80307,506.24868 517.265619,502.717751 519.868986,500.11438 C522.472354,497.511009 526.00328,496.04845 529.685,496.04845 Z" id="Path" fill="#59636B"></path>
            <path d="M603.58987,346.86574 C601.727327,344.808593 600.871628,342.032116 601.253023,339.283396 C601.634418,336.534676 603.213729,334.096066 605.566,332.62374 L602.02515,311.49033 L614.34305,306.20625 L618.92426,336.12095 C621.185356,340.328966 619.941759,345.563106 616.029557,348.304387 C612.117354,351.045668 606.773126,350.427618 603.58987,346.86576 L603.58987,346.86574 Z" id="Path" fill="#B19095"></path>
            <path d="M507.15193,336.88 C509.328739,335.158822 510.631374,332.561858 510.709323,329.787894 C510.787272,327.01393 509.632529,324.347913 507.55581,322.50721 L514.53938,302.24921 L503.26369,295.00275 L493.80335,323.74955 C490.878225,327.526204 491.240066,332.893802 494.645607,336.243693 C498.051148,339.593584 503.423978,339.866947 507.15193,336.88 Z" id="Path" fill="#B19095"></path>
            <circle id="Oval" fill="#B19095" cx="565.70229" cy="163.07971" r="24.56103"></circle>
            <path d="M506.39258,321.72412 C505.971257,321.72412 505.552047,321.664589 505.14722,321.54785 L497.98853,319.49268 C495.608859,318.804943 494.229993,316.325886 494.90088,313.94141 L509.67456,261.7793 L530.27661,211.2041 C532.3252,206.17627 536.60523,202.87891 541.44653,202.5991 C545.963767,202.378378 550.187438,204.838129 552.22461,208.87596 L552.22461,208.87596 C554.470342,213.162998 554.602167,218.248839 552.58154,222.64646 L529.16454,273.85691 L510.54833,318.94041 C509.854353,320.624047 508.213633,321.72412 506.39258,321.72412 Z" id="Path" fill="#7897A5"></path>
            <path d="M579.56241,183.677 L565.91585,183.91961 C563.03314,183.976401 560.295027,182.659736 558.539454,180.372553 C556.78388,178.08537 556.219842,175.099951 557.01995,172.32992 C557.311542,171.342979 557.530632,170.336052 557.67547,169.31718 C557.828837,168.206057 557.858946,167.081388 557.76525,165.96365 C557.587063,163.65848 555.837454,161.783396 553.550124,161.446233 C551.262794,161.109069 549.046563,162.399568 548.21082,164.55528 L548.21082,164.55528 C545.91621,164.58797 541.02788,163.83994 538.73327,163.87263 C533.86121,151.38281 544.47818,135.0394 555.90709,128.9008 C567.55835,122.6428 582.6823,129.00949 587.14848,142.05247 C593.34687,142.16388 598.3831,148.27713 599.18189,155.15878 C599.98068,162.04043 597.1495,169.22625 592.8186,174.50058 C588.4877,179.77491 582.80109,183.61942 579.56241,183.677 Z" id="Path" fill="#2F2E41"></path>
            <path d="M534.70435,495.19922 C532.415835,495.186657 530.498754,493.463655 530.24292,491.18945 L525.17944,320.9541 L588.9668,325.49463 L589.01587,325.90479 C603.43066,446.56738 598.50317,488.33643 598.45166,488.74414 C598.380091,489.992134 597.79244,491.154068 596.829624,491.951313 C595.866809,492.748557 594.615667,493.109207 593.37622,492.94678 L579.27954,493.28467 C577.071144,493.034882 575.376255,491.209595 575.29054,488.98877 L562.11914,365.689 C561.951122,365.028085 561.333187,364.582925 560.65308,364.63285 C559.95355,364.630615 559.350363,365.124012 559.21387,365.8101 L554.12525,489.51371 C554.237601,491.898562 552.460238,493.952628 550.08399,494.18412 L535.15161,495.1768 C535.002993,495.19176 534.853718,495.19922 534.70435,495.19922 Z" id="Path" fill="#59636B"></path>
            <path d="M561.17285,341.29492 C560.79126,341.29492 560.4104,341.28906 560.02785,341.27734 C541.68606,340.7251 527.3362,326.84814 523.37527,322.60791 C522.350595,321.509915 521.944553,319.971377 522.29397,318.51074 L532.87527,273.74658 L530.06789,234.82958 C529.17622,223.904658 532.999612,213.119983 540.57351,205.19628 C546.88693,198.526755 555.785072,194.926948 564.95998,195.33056 C582.81498,196.18256 596.90139,212.14208 597.02859,231.66308 C597.2261,261.89794 596.33596,263.97508 596.04372,264.6577 C587.13283,285.45458 591.99953,314.64696 593.70339,323.09911 C594.012851,324.632316 593.506989,326.216491 592.36623,327.28661 C582.56593,336.58545 572.07617,341.29492 561.17285,341.29492 Z" id="Path" fill="#7897A5"></path>
            <path d="M607.23755,329.916 C605.14151,329.914572 603.324465,328.465149 602.85718,326.42186 L591.94043,278.86475 L577.30982,224.50732 C576.043518,219.83623 577.013814,214.842 579.93701,210.98486 C582.614622,207.341115 587.18511,205.613389 591.60352,206.57471 C596.33228,207.65088 600.00879,211.60986 601.19852,216.90723 L613.15335,270.13623 L619.11575,324.07715 C619.382917,326.539631 617.613535,328.756511 615.15311,329.04199 L607.7532,329.88623 C607.582031,329.906046 607.409862,329.916 607.23755,329.916 L607.23755,329.916 Z" id="Path" fill="#7897A5"></path>
            <path d="M26,52 C11.6405965,52 8.52651283e-14,40.3594035 8.52651283e-14,26 C8.52651283e-14,11.6405965 11.6405965,2.84217094e-14 26,2.84217094e-14 L293,2.84217094e-14 C307.359403,2.84217094e-14 319,11.6405965 319,26 C319,40.3594035 307.359403,52 293,52 L26,52 Z" id="Path" fill="#B7B7B7"></path>
            <path d="M26,8.5 C16.3350169,8.5 8.5,16.3350169 8.5,26 C8.5,35.6649831 16.3350169,43.5 26,43.5 L293,43.5 C302.664983,43.5 310.5,35.6649831 310.5,26 C310.5,16.3350169 302.664983,8.5 293,8.5 L26,8.5 Z" id="Path" fill="#B7B7B7"></path>
            <path d="M387.35433,1.6811 C374.019045,1.6811 363.20857,12.4913947 363.20857,25.82668 C363.20857,39.1619653 374.018865,49.97244 387.35415,49.97244 L387.35433,49.97244 C400.689615,49.97244 411.5,39.1620553 411.5,25.82677 C411.5,12.4914847 400.689615,1.6811 387.35433,1.6811 Z" id="Path" fill="#429DA8"></path>
            <path d="M385.06327,35.8546341 C384.427638,35.8556975 383.808893,35.6500599 383.30035,35.26873 L383.26881,35.24508 L376.62874,30.16563 C375.79159,29.5243945 375.360259,28.4851597 375.497304,27.4395875 C375.634349,26.3940153 376.318938,25.5010461 377.293066,25.0972179 C378.267193,24.6933897 379.382781,24.8400896 380.21939,25.48203 L384.5203,28.78017 L394.68357,15.52105 C395.159521,14.9002174 395.862606,14.4938867 396.63815,14.3914484 C397.413695,14.2890101 398.198168,14.4988555 398.81899,14.97482 L398.81985,14.97546 L398.75677,15.06304 L398.82156,14.97546 C400.112856,15.967893 400.356945,17.8183908 399.36715,19.11171 L387.41293,34.70037 C386.852365,35.4283934 385.984708,35.8538063 385.06588,35.85113 L385.06327,35.8546341 Z" id="ad0a0ef9-b94e-459b-a18b-5e864c4f85bd" fill="#FFFFFF"></path>
            <path d="M293,140 L26,140 C11.6405965,140 8.52651283e-14,128.359403 8.52651283e-14,114 C8.52651283e-14,99.6405965 11.6405965,88 26,88 L293,88 C307.359403,88 319,99.6405965 319,114 C319,128.359403 307.359403,140 293,140 Z" id="Path" fill="#B7B7B7"></path>
            <path d="M26,96.5 C16.3350169,96.5 8.5,104.335017 8.5,114 C8.5,123.664983 16.3350169,131.5 26,131.5 L293,131.5 C302.664983,131.5 310.5,123.664983 310.5,114 C310.5,104.335017 302.664983,96.5 293,96.5 L26,96.5 Z" id="Path" fill="#B7B7B7"></path>
            <path d="M387.35433,89.6811 C374.019045,89.6811 363.20857,100.491395 363.20857,113.82668 C363.20857,127.161965 374.018865,137.97244 387.35415,137.97244 L387.35433,137.97244 C400.689615,137.97244 411.5,127.162055 411.5,113.82677 C411.5,100.491485 400.689615,89.6811 387.35433,89.6811 Z" id="Path" fill="#429DA8"></path>
            <path d="M385.06327,123.854634 C384.427638,123.855697 383.808893,123.65006 383.30035,123.26873 L383.26881,123.24508 L376.62874,118.16563 C375.79159,117.524395 375.360259,116.48516 375.497304,115.439588 C375.634349,114.394015 376.318938,113.501046 377.293066,113.097218 C378.267193,112.69339 379.382781,112.84009 380.21939,113.48203 L384.5203,116.78017 L394.68357,103.52105 C395.159521,102.900217 395.862606,102.493887 396.63815,102.391448 C397.413695,102.28901 398.198168,102.498856 398.81899,102.97482 L398.81985,102.97546 L398.75677,103.06304 L398.82156,102.97546 C400.112856,103.967893 400.356945,105.818391 399.36715,107.11171 L387.41293,122.70037 C386.852365,123.428393 385.984708,123.853806 385.06588,123.85113 L385.06327,123.854634 Z" id="b52aca83-db19-4a50-956a-5cae2a617b83" fill="#FFFFFF"></path>
            <path d="M26,228 C11.6405965,228 8.52651283e-14,216.359403 8.52651283e-14,202 C8.52651283e-14,187.640597 11.6405965,176 26,176 L293,176 C307.359403,176 319,187.640597 319,202 C319,216.359403 307.359403,228 293,228 L26,228 Z" id="Path" fill="#B7B7B7"></path>
            <path d="M26,184.5 C16.3350169,184.5 8.5,192.335017 8.5,202 C8.5,211.664983 16.3350169,219.5 26,219.5 L293,219.5 C302.664983,219.5 310.5,211.664983 310.5,202 C310.5,192.335017 302.664983,184.5 293,184.5 L26,184.5 Z" id="Path" fill="#B7B7B7"></path>
            <path d="M387.35433,177.6811 C374.019045,177.6811 363.20857,188.491395 363.20857,201.82668 C363.20857,215.161965 374.018865,225.97244 387.35415,225.97244 L387.35433,225.97244 C400.689615,225.97244 411.499999,215.162055 411.499999,201.82677 C411.499999,188.491485 400.689615,177.6811 387.35433,177.6811 Z" id="Path" fill="#B7B7B7"></path>
        </g>
    </g>
</svg>