<?xml version="1.0" encoding="UTF-8"?>
<svg width="100px" height="100px" viewBox="0 0 100 100" version="1.1" xmlns="http://www.w3.org/2000/svg" xmlns:xlink="http://www.w3.org/1999/xlink">
    <!-- Generator: Sketch 44.1 (41455) - http://www.bohemiancoding.com/sketch -->
    <title>Custom Preset 4</title>
    <desc>Created with Sketch.</desc>
    <defs></defs>
    <g id="Page-1" stroke="none" stroke-width="1" fill="none" fill-rule="evenodd">
        <g id="Custom-Preset-4" fill-rule="nonzero" fill="#E0E0E0">
            <g id="sad-rounded-square-emoticon" transform="translate(8.500000, 8.500000)">
                <path d="M12.1397852,12.1374378 C-4.04685587,28.3240788 -4.04529096,54.6599402 12.1413501,70.8489286 C28.3240788,87.0340047 54.6599402,87.0340047 70.8473636,70.8450163 C87.0332222,54.6599402 87.0316573,28.3256437 70.8489286,12.142915 C54.6599402,-4.04685587 28.3240788,-4.04685587 12.1397852,12.1374378 Z M66.3200806,66.3192981 C52.6318175,80.0067787 30.3561138,80.0083436 16.6686331,66.3216455 C2.97724025,52.6302526 2.97880516,30.3545488 16.6686331,16.6662858 C30.3553313,2.97880516 52.6302526,2.97724025 66.3216455,16.6678507 C80.0099085,30.3553313 80.0083436,52.631035 66.3200806,66.3192981 Z M60.2630985,57.9024326 C60.7763888,59.0925462 60.2294529,60.4735788 59.0401218,60.988434 C57.8500081,61.5040717 56.4689755,60.9555709 55.9541203,59.7662397 C53.6896963,54.5324 48.3408358,51.1490658 42.3237589,51.1490658 C36.1666226,51.1490658 30.7841165,54.5292702 28.6128046,59.7607626 C28.2372263,60.6621504 27.3640069,61.2083038 26.4446226,61.2090863 C26.1433775,61.2090863 25.839785,61.1511846 25.5447996,61.0291217 C24.3468614,60.530698 23.7795817,59.1567075 24.2780054,57.9603342 C27.18013,50.9714486 34.2652576,46.4559023 42.3245413,46.4559023 C50.2140324,46.4551199 57.256125,50.9479749 60.2630985,57.9024326 Z M23.1864811,29.4727224 C22.6575417,28.5525556 22.9752183,27.3788735 23.895385,26.8507166 L30.9726881,22.7850818 C31.8928548,22.2577073 33.0665369,22.5753839 33.5954763,23.4947682 C34.1244157,24.414935 33.8067391,25.5886171 32.8865724,26.116774 L25.8092693,30.1808439 C24.8883201,30.7090008 23.714638,30.3921067 23.1864811,29.4727224 Z M34.1682332,29.5548801 C35.4890168,30.8764462 35.4890168,33.0203721 34.1682332,34.3395908 C32.8474496,35.6603744 30.7050886,35.6603744 29.3819576,34.3380259 C28.061174,33.0172423 28.061174,30.8748812 29.3819576,29.5548801 C30.7035237,28.2333141 32.8466672,28.2333141 34.1682332,29.5548801 Z M45.6711002,18.0660973 C45.7657772,17.0097834 46.6984633,16.229676 47.7539947,16.3243531 L55.8852643,17.0551658 C56.9415782,17.1498428 57.722468,18.0825288 57.6262261,19.1396252 C57.531549,20.1967215 56.5996454,20.9760464 55.5417666,20.880587 L47.4128444,20.1505567 C46.3557481,20.0558797 45.5748583,19.1216287 45.6711002,18.0660973 Z M54.3508705,29.4993258 C55.6716541,30.8201094 55.6716541,32.9624705 54.3508705,34.2824716 C53.0277396,35.6048201 50.8838136,35.6048201 49.564595,34.2840365 C48.2438114,32.9640354 48.2438114,30.8208919 49.564595,29.4993258 C50.8853785,28.1769773 53.0277396,28.1769773 54.3508705,29.4993258 Z" id="Shape"></path>
            </g>
        </g>
    </g>
</svg>