<?xml version="1.0" encoding="UTF-8"?>
<svg width="887px" height="652px" viewBox="0 0 887 652" version="1.1" xmlns="http://www.w3.org/2000/svg" xmlns:xlink="http://www.w3.org/1999/xlink">
    <title>select</title>
    <g id="Page-1" stroke="none" stroke-width="1" fill="none" fill-rule="evenodd">
        <g id="select" fill-rule="nonzero">
            <polygon id="Path" fill="#B7B7B7" points="191.188 0 63.729 0 0 110.382 63.729 220.765 191.188 220.765 254.917 110.382 203.531646 21.3798479"></polygon>
            <polygon id="Path" fill="#FFFFFF" points="70.8825 208.37477 184.0345 208.37477 240.6105 110.38231 184.0345 12.38985 70.8825 12.38985 14.3065 110.38231"></polygon>
            <circle id="Oval" fill="#E2E2E2" cx="69.51589" cy="81.14999" r="5.22006"></circle>
            <circle id="Oval" fill="#E2E2E2" cx="69.51589" cy="110.38231" r="5.22006"></circle>
            <circle id="Oval" fill="#E2E2E2" cx="69.51589" cy="139.61462" r="5.22006"></circle>
            <rect id="Rectangle" fill="#E2E2E2" x="91.44012" y="76.97395" width="99.18107" height="8.35209"></rect>
            <rect id="Rectangle" fill="#E2E2E2" x="91.44012" y="106.20626" width="99.18107" height="8.35209"></rect>
            <rect id="Rectangle" fill="#E2E2E2" x="91.44012" y="135.43858" width="99.18107" height="8.3521"></rect>
            <polygon id="Path" fill="#B7B7B7" points="694.927 0 631.198 110.382 694.927 220.765 822.386 220.765 886.115 110.382 822.386 0"></polygon>
            <polygon id="Path" fill="#FFFFFF" points="702.0803 208.37477 815.2323 208.37477 871.8083 110.38231 815.2323 12.38985 702.0803 12.38985 645.5043 110.38231"></polygon>
            <circle id="Oval" fill="#E2E2E2" cx="700.71368" cy="81.14999" r="5.22005"></circle>
            <circle id="Oval" fill="#E2E2E2" cx="700.71368" cy="110.38231" r="5.22005"></circle>
            <circle id="Oval" fill="#E2E2E2" cx="700.71368" cy="139.61462" r="5.22005"></circle>
            <rect id="Rectangle" fill="#E2E2E2" x="722.63794" y="76.97395" width="99.18103" height="8.35209"></rect>
            <rect id="Rectangle" fill="#E2E2E2" x="722.63794" y="106.20626" width="99.18103" height="8.35209"></rect>
            <rect id="Rectangle" fill="#E2E2E2" x="722.63794" y="135.43858" width="99.18103" height="8.3521"></rect>
            <polygon id="Path" fill="#B7B7B7" points="379.946 1.072 316.836 110.382 379.946 219.693 506.167 219.693 569.279 110.382 506.167 1.072"></polygon>
            <polygon id="Path" fill="#FFFFFF" points="387.03074 207.42314 499.0839 207.42314 555.1105 110.38232 499.0839 13.34149 387.03074 13.34149 331.00419 110.38231"></polygon>
            <circle id="Oval" fill="#429DA8" cx="385.6774" cy="81.43388" r="5.16936"></circle>
            <circle id="Oval" fill="#429DA8" cx="385.6774" cy="110.38231" r="5.16936"></circle>
            <circle id="Oval" fill="#429DA8" cx="385.6774" cy="139.33073" r="5.16936"></circle>
            <rect id="Rectangle" fill="#429DA8" x="407.3887" y="77.29839" width="98.2179" height="8.27098"></rect>
            <rect id="Rectangle" fill="#429DA8" x="407.3887" y="106.24682" width="98.2179" height="8.27098"></rect>
            <rect id="Rectangle" fill="#429DA8" x="407.3887" y="135.19525" width="98.2179" height="8.27098"></rect>
            <polygon id="Path" fill="#B19095" points="538.405 639.736 532.573 592.448 550.667 592.449 550.665 639.737"></polygon>
            <path d="M553.79142,651.62083 L514.26066,651.61937 L514.26066,651.11937 C514.261256,642.621939 521.149709,635.733598 529.64714,635.73314 L529.64814,635.73314 L553.79214,635.73414 L553.79142,651.62083 Z" id="Path" fill="#7897A5"></path>
            <polygon id="Path" fill="#B19095" points="664.665 639.737 652.405 639.736 646.573 592.448 664.667 592.449"></polygon>
            <path d="M667.79142,651.62083 L628.26066,651.61937 L628.26066,651.11937 C628.261256,642.621939 635.149709,635.733598 643.64714,635.73314 L643.64814,635.73314 L667.79214,635.73414 L667.79142,651.62083 Z" id="Path" fill="#7897A5"></path>
            <path d="M545.77843,399.76187 C545.77843,399.76187 535.48784,427.69339 536.95793,439.45401 C538.42802,451.21463 526.6674,533.53916 528.13744,540.88956 C529.60748,548.23996 526.66734,584.99198 528.13744,590.87229 C529.60754,596.7526 524.01144,603.77629 526.95161,609.65662 C529.89178,615.53695 534.01775,627.6243 534.01775,627.6243 L553.12875,626.15421 L556.06893,609.98331 C556.06893,609.98331 564.88943,608.51322 563.41934,599.69272 C561.94925,590.87222 570.76974,532.06906 570.76974,532.06906 L595.76107,449.7446 L631.04299,524.71866 C631.04299,524.71866 632.51309,577.64151 636.9233,583.52182 C641.33351,589.40213 632.51309,605.57303 636.9233,611.45334 C641.33351,617.33365 645.7438,627.6243 645.7438,627.6243 L667.79501,627.6243 L667.79501,615.86362 C667.79501,615.86362 681.02572,608.51322 667.79501,586.46201 L658.85482,454.03513 L650.03433,393.76187 L545.77843,399.76187 Z" id="Path" fill="#B7B7B7"></path>
            <circle id="Oval" fill="#B19095" cx="600.5805" cy="187.45592" r="27.45748"></circle>
            <path d="M577.21469,185.56183 C579.15213,190.51199 581.089627,195.46214 583.02718,200.41228 C585.40905,206.49778 588.13701,213.00855 593.72018,216.40476 C600.61353,220.59797 609.81909,218.55335 616.48756,214.01105 C628.770758,205.644233 634.553513,190.519863 630.985624,176.092432 C627.417735,161.665002 615.252159,150.979236 600.48506,149.30193 L600.20911,154.27238 L594.10983,149.15991 C593.195938,150.72806 591.614184,151.791287 589.817048,152.045441 C588.019913,152.299596 586.205357,151.716682 584.89246,150.46345 C586.49466,153.78454 584.64551,157.83506 581.97518,160.37918 C578.69446,163.50451 569.31124,167.26063 569.70062,172.84773 C569.9605,176.57615 575.70235,181.69798 577.21469,185.56183 Z" id="Path" fill="#59636B"></path>
            <path d="M676.16159,440.37818 C678.077118,437.520021 678.628274,433.960201 677.666753,430.656597 C676.705232,427.352993 674.329804,424.644961 671.17965,423.26118 L671.72829,396.69911 L655.66791,392.42878 L655.41997,429.95044 C653.401751,435.518841 655.867344,441.71671 661.159089,444.377112 C666.450833,447.037514 672.896086,445.319534 676.16159,440.3782 L676.16159,440.37818 Z" id="Path" fill="#B19095"></path>
            <path d="M620.97703,231.88339 C620.97703,231.88339 599.69969,221.24472 579.60441,228.33716 C559.50913,235.4296 548.87041,243.70416 548.87041,243.70416 L561.87322,312.26453 L544.14214,404.4664 C544.14214,404.4664 635.16198,397.37393 643.43645,404.4664 C651.71092,411.55887 651.71099,396.19187 651.71099,396.19187 L644.6185,308.71825 L657.62137,253.16073 L620.97703,231.88339 Z" id="Path" fill="#7897A5"></path>
            <path d="M531.17283,441.95107 C533.813776,439.745674 535.342222,436.483772 535.34689,433.043082 C535.351559,429.602393 533.831971,426.336355 531.19702,424.1238 L539.18113,398.78414 L524.96566,390.17647 L514.19315,426.11934 C510.692768,430.897142 511.319101,437.537932 515.651059,441.577017 C519.983017,445.616103 526.651341,445.7768 531.17283,441.95107 L531.17283,441.95107 Z" id="Path" fill="#B19095"></path>
            <path d="M557.14494,243.70416 L548.8704,243.70416 C548.8704,243.70416 535.86756,251.9787 535.86756,263.79944 C535.86756,275.62018 516.95439,413.92307 516.95439,413.92307 L537.04966,417.46927 L554.7808,320.53906 L567.78367,294.53339 L557.14494,243.70416 Z" id="Path" fill="#7897A5"></path>
            <path d="M635.16197,253.16077 L657.62138,253.16077 C657.62138,253.16077 664.71385,260.25321 668.26005,276.80228 C671.80625,293.35135 675.35252,358.36548 675.35252,358.36548 L672.98838,417.46925 L655.25724,417.46925 L652.89311,340.63435 L641.07237,290.98725 L635.16197,253.16077 Z" id="Path" fill="#7897A5"></path>
        </g>
    </g>
</svg>