<?xml version="1.0" encoding="UTF-8"?>
<svg width="75px" height="82px" viewBox="0 0 75 82" version="1.1" xmlns="http://www.w3.org/2000/svg" xmlns:xlink="http://www.w3.org/1999/xlink">
    <title>Group</title>
    <g id="Page-1" stroke="none" stroke-width="1" fill="none" fill-rule="evenodd">
        <g id="Group" transform="translate(0.836275, 0.204309)" fill-rule="nonzero">
            <path d="M71.4977639,61.2787286 L50.2809945,40.2250475 L58.4272157,32.1414444 C61.1479263,29.4416473 61.1479263,25.0603976 58.4272157,22.3527063 C57.6953286,21.6264451 56.8441122,21.1054316 55.9372086,20.7659834 L41.3790204,35.2122663 C41.3631098,35.1806897 41.3312886,35.1491131 41.315378,35.1175366 C42.1427286,36.4832234 42.6280016,38.0778404 42.6280016,39.7908696 C42.6280016,41.8196645 41.9518016,43.6826824 40.8221498,45.1904639 C40.7425969,45.2930877 40.6709992,45.3957116 40.5914463,45.4904413 C40.4164298,45.7035832 40.2414133,45.9009368 40.0504863,46.0982904 C39.9788886,46.1693377 39.9152463,46.240385 39.8436486,46.3114323 C39.6288557,46.5245741 39.3981522,46.7219277 39.1594933,46.9113872 C39.1038063,46.958752 39.0481192,47.0061169 38.9924322,47.0455876 C38.7299075,47.2429412 38.4514722,47.4324007 38.1650816,47.5981777 C38.1332604,47.613966 38.1093945,47.6376484 38.0775733,47.6613308 L53.0733027,62.5417916 L61.6650204,71.0674667 C64.385731,73.7672639 68.8009192,73.7672639 71.5295851,71.0674667 C74.2264298,68.3676696 74.2264298,63.9864199 71.4977639,61.2787286 Z" id="Path" fill="#00B3B3"></path>
            <g id="Layer_4" transform="translate(0.000000, 44.645768)" fill="#3E4651">
                <path d="M38.1412157,2.96030387 C36.7649498,3.78129481 35.1659357,4.26283757 33.4475922,4.26283757 C30.2813851,4.26283757 27.4970322,2.6761147 25.842331,0.26050674 L2.35830275,23.5640188 C-0.362407843,26.2638159 -0.362407843,30.6450656 2.35830275,33.3527569 C5.07901333,36.052554 9.49420157,36.052554 12.2228675,33.3527569 L33.4475922,12.2990758 L41.5938133,20.3826789 C44.3145239,23.082476 48.7297122,23.082476 51.458378,20.3826789 C52.1902651,19.6564177 52.7153145,18.8117443 53.0494369,17.9118119 L38.0537075,3.03135116 C38.0855286,2.99977459 38.1093945,2.97609215 38.1412157,2.96030387 Z" id="Path"></path>
            </g>
            <g id="Layer_3" transform="translate(13.082039, 0.000000)" fill="#F16231">
                <path d="M51.4468871,2.45946431 C48.7261765,-0.240332818 44.3109882,-0.240332818 41.5823224,2.45946431 L20.3655529,23.5131454 L12.2193318,15.4374365 C9.49862118,12.7376393 5.08343294,12.7376393 2.35476706,15.4374365 C0.994411765,16.787335 0.310256471,18.5635173 0.310256471,20.3318055 C0.310256471,22.1000937 0.994411765,23.876276 2.35476706,25.2261746 L12.4341247,35.2280546 C14.0251835,32.5203633 16.9765976,30.688922 20.3655529,30.688922 C22.4100635,30.688922 24.2954682,31.3678183 25.8149294,32.4887867 C25.9103929,32.559834 26.0058565,32.6308813 26.10132,32.7098228 C26.3161129,32.8834939 26.5229506,33.0650592 26.7218329,33.2545187 C26.7934306,33.325566 26.8650282,33.3887191 26.9286706,33.4597664 C27.1434635,33.6729083 27.3423459,33.9018385 27.5332729,34.1386628 C27.5810047,34.1939218 27.6287365,34.2491808 27.6764682,34.3123339 C27.8753506,34.5728407 28.0583224,34.8491357 28.2253835,35.1254307 C28.2492494,35.1570073 28.2731153,35.1885839 28.2890259,35.2201604 L42.8472141,20.7738776 L51.4389318,12.2482024 C54.1675976,9.5484053 54.1675976,5.15926144 51.4468871,2.45946431 Z" id="Path"></path>
            </g>
        </g>
    </g>
</svg>