<?xml version="1.0" encoding="UTF-8"?>
<svg width="629px" height="542px" viewBox="0 0 629 542" version="1.1" xmlns="http://www.w3.org/2000/svg" xmlns:xlink="http://www.w3.org/1999/xlink">
    <title>userAction</title>
    <g id="Page-1" stroke="none" stroke-width="1" fill="none" fill-rule="evenodd">
        <g id="userAction" fill-rule="nonzero">
            <rect id="ae13a9af-8be6-48d2-be97-15b9bb35f653" fill="#B7B7B7" x="0.32514" y="0.43193" width="532.26441" height="313.47738"></rect>
            <rect id="a5b6fe3b-52e9-48cc-a961-c4a66fbfd4e0" fill="#429DA8" x="0" y="0" width="532.26441" height="32.39915"></rect>
            <rect id="f9022efb-4ab6-4da5-b9f8-05744185cb65" fill="#FFFFFF" x="12.2742" y="42.35071" width="507.51155" height="255.96132"></rect>
            <circle id="b8863a4f-d6d1-45f4-aeb2-54ce0fc41c58" fill="#FFFFFF" cx="50.43802" cy="16.1168" r="5.35947"></circle>
            <circle id="bbe8bb57-e8a1-4ebb-9530-09dc8d102d8f" fill="#FFFFFF" cx="70.78166" cy="16.1168" r="5.35947"></circle>
            <circle id="e8afff7b-3b6f-4dbf-9548-6e45ece64f65" fill="#FFFFFF" cx="30.04157" cy="16.1168" r="5.35947"></circle>
            <rect id="b1f15dfa-2d28-41bb-b4d1-13ec40007797" fill="#E6E6E6" x="71.46529" y="86.55195" width="389.12937" height="10.16355"></rect>
            <rect id="ad95e1cc-3eac-41f8-b758-723622ce1f63" fill="#E6E6E6" x="196.65866" y="111.96048" width="138.74262" height="10.16355"></rect>
            <rect id="b780e72c-b22a-4ee2-b16a-5905a6a8a985" fill="#E6E6E6" x="196.65866" y="163.50023" width="138.74262" height="10.16355"></rect>
            <rect id="a53233dc-737e-4f4d-ba21-0434f7dacc3a" fill="#E6E6E6" x="196.65866" y="189.89863" width="138.74262" height="10.16355"></rect>
            <rect id="a2199747-3d5b-4c24-9aea-bee34d6022f4" fill="#E6E6E6" x="127.82906" y="137.36902" width="276.40183" height="10.16355"></rect>
            <rect id="Rectangle" fill="#429DA8" x="387.59466" y="236.06219" width="73" height="18.0486"></rect>
            <polygon id="Path" fill="#B19095" points="531.231 529.365 518.972 529.364 513.139 482.076 531.234 482.077"></polygon>
            <path d="M510.21452,525.861 L533.85836,525.861 L533.85836,540.74787 L495.32765,540.74787 L495.32765,540.74787 C495.32765,532.526081 501.992731,525.861 510.21452,525.861 Z" id="Path" fill="#59636B"></path>
            <polygon id="Path" fill="#B19095" points="577.231 529.365 564.972 529.364 559.139 482.076 577.234 482.077"></polygon>
            <path d="M556.21449,525.861 L579.85836,525.861 L579.85836,540.74787 L541.32764,540.74787 L541.32764,540.74787 C541.32764,536.799629 542.896067,533.013097 545.687893,530.221267 C548.479719,527.429438 552.266249,525.861 556.21449,525.861 L556.21449,525.861 Z" id="Path" fill="#59636B"></path>
            <path d="M575.73404,388.526 C573.060212,386.806077 571.28553,383.990158 570.887519,380.835943 C570.489509,377.681727 571.509055,374.513222 573.67182,372.183 L565.59932,257.62516 L588.85232,259.88025 L589.49099,372.06691 C593.247291,376.047105 593.432961,382.207765 589.923169,386.406945 C586.413377,390.606125 580.317527,391.516515 575.73399,388.52604 L575.73404,388.526 Z" id="Path" fill="#B19095"></path>
            <path d="M530.65226,505.54174 L517.15588,504.89819 C514.768649,504.785041 512.886492,502.825154 512.86999,500.4353 L511.927985,363.87865 C511.919131,362.566904 512.482855,361.316514 513.471764,360.454645 C514.460672,359.592776 515.776361,359.20519 517.07458,359.3933 L571.06823,367.23119 C573.273818,367.539978 574.916429,369.424027 574.92175,371.65112 L581.866207,498.1853 C581.875066,499.384647 581.404945,500.537968 580.560069,501.38926 C579.715192,502.240552 578.565461,502.719384 577.36608,502.71947 L562.81608,502.71947 C560.597464,502.728409 558.706656,501.111751 558.37077,498.91869 C558.37077,498.91869 547.38054,404.00653 545.8715,404.06219 C544.35417,404.09051 535.33464,501.58178 535.33464,501.58178 C535.05688,503.84075 533.141861,505.540246 530.86589,505.5476 C530.795083,505.5476 530.723873,505.545647 530.65226,505.54174 Z" id="Path" fill="#59636B"></path>
            <path d="M570.86307,296.11814 C569.760077,295.324918 569.076449,294.074176 569.00435,292.71749 L567.3005,261.84138 C566.951297,255.505769 571.441807,249.928962 577.706077,248.918596 C583.970347,247.908231 589.9865,251.790417 591.64693,257.91454 L599.13149,285.51945 C599.778836,287.91774 598.362694,290.387456 595.96587,291.04021 L574.67523,296.81278 C573.364896,297.170747 571.962923,296.915284 570.86307,296.11814 L570.86307,296.11814 Z" id="Path" fill="#7897A5"></path>
            <circle id="Oval" fill="#B19095" cx="550.97489" cy="198.17616" r="24.56103"></circle>
            <path d="M461.97117,246.43079 C462.093919,246.970361 462.173934,247.51877 462.21047,248.07092 L505.16792,272.85292 L515.60933,266.84199 L526.7405,281.41426 L504.40336,297.33482 L455.39544,258.67214 C451.302855,260.186566 446.700172,259.010707 443.835452,255.718881 C440.970732,252.427055 440.441694,247.706096 442.506733,243.861834 C444.571773,240.017572 448.800023,237.852105 453.126303,238.423101 C457.452584,238.994097 460.974224,242.182418 461.97117,246.43081 L461.97117,246.43079 Z" id="Path" fill="#B19095"></path>
            <path d="M506.70219,270.74558 C506.557213,269.394738 507.032826,268.051053 507.99534,267.09222 L529.85875,245.22373 C534.345266,240.736713 541.495425,240.361136 546.427335,244.353429 C551.359245,248.345723 552.481055,255.417312 549.02683,260.73995 L533.45683,284.73215 C532.102191,286.814416 529.317662,287.407206 527.23235,286.05726 L508.72805,274.04873 C507.587205,273.311464 506.842169,272.096689 506.70219,270.74558 L506.70219,270.74558 Z" id="Path" fill="#7897A5"></path>
            <path d="M568.35549,217.60773 C563.77349,222.48852 555.26417,219.8684 554.66714,213.20056 C554.620316,212.682884 554.623712,212.161891 554.67728,211.64487 C554.98554,208.6913 556.69189,206.00987 556.28315,202.89127 C556.190637,202.115123 555.901466,201.375455 555.44304,200.74236 C551.7918,195.85302 543.22077,202.92922 539.77484,198.50306 C537.66184,195.78906 540.14564,191.51593 538.52419,188.48255 C536.38413,184.47897 530.04538,186.45395 526.07031,184.2614 C521.64756,181.82191 521.91209,175.03615 524.82345,170.9087 C528.37397,165.87511 534.59917,163.18919 540.74681,162.80209 C546.89445,162.41499 552.99973,164.07684 558.7391,166.31354 C565.26019,168.85488 571.72678,172.36705 575.73977,178.10107 C580.61998,185.07424 581.08963,194.449 578.64894,202.60282 C577.16424,207.56286 572.09716,213.62205 568.35549,217.60773 Z" id="Path" fill="#2F2E41"></path>
            <path d="M575.49043,239.14331 C575.06367,238.836643 574.628613,238.535537 574.18526,238.23999 C571.827221,236.671582 569.273503,235.419493 566.58955,234.51581 L566.58955,228.06219 L547.58955,228.06219 L547.58955,234.04986 C534.714117,237.601533 525.203777,248.498545 523.42647,261.73608 L510.48897,357.78686 C510.320868,359.000221 510.657208,360.229473 511.41963,361.18823 C512.165702,362.140261 513.269395,362.744874 514.47334,362.86108 C518.95625,363.30835 528.25362,365.04565 540.15303,371.65698 C545.875361,374.826868 552.317064,376.471048 558.8586,376.432091 C564.052209,376.411405 569.203322,375.494274 574.08467,373.72046 C575.776559,373.096877 576.927561,371.517153 577.00267,369.71557 C577.46849,359.37866 580.1931,306.17163 588.12667,273.71657 C591.280085,260.697957 586.29559,247.060179 575.49043,239.14331 Z" id="Path" fill="#7897A5"></path>
        </g>
    </g>
</svg>