<?xml version="1.0" encoding="UTF-8"?>
<svg width="900px" height="500px" viewBox="0 0 900 500" version="1.1" xmlns="http://www.w3.org/2000/svg" xmlns:xlink="http://www.w3.org/1999/xlink">
    <title>Custom Preset 42</title>
    <g id="Custom-Preset-42" stroke="none" stroke-width="1" fill="none" fill-rule="evenodd">
        <rect id="Rectangle" stroke="#979797" fill="#4D5967" x="-11" y="-15" width="936" height="534"></rect>
        <g id="SpaceNETlogo_WebColors" transform="translate(406.000000, -44.000000)" fill-rule="nonzero">
            <g id="Layer_2" transform="translate(285.000000, 155.000000)">
                <path d="M15.28,193.1 C14.74,193.64 14.26,194.18 13.72,194.72 C14.26,194.18 14.8,193.64 15.28,193.1 Z" id="Path" fill="#3E4651"></path>
                <path d="M7.24,200.3 C7.66,199.94 8.08,199.64 8.5,199.28 C8.14,199.58 7.72,199.94 7.24,200.3 Z" id="Path" fill="#3E4651"></path>
                <path d="M19.42,188.48 C20.02,187.7 20.62,186.98 21.16,186.2 C20.62,186.92 20.02,187.7 19.42,188.48 Z" id="Path" fill="#3E4651"></path>
                <path d="M252.58,308.42 L92.56,148.4 L154,86.96 C174.52,66.44 174.52,33.14 154,12.56 C148.48,7.04 142.06,3.08 135.22,0.5 L25.42,110.3 C25.3,110.06 25.06,109.82 24.94,109.58 C31.18,119.96 34.84,132.08 34.84,145.1 C34.84,160.52 29.74,174.68 21.22,186.14 C20.62,186.92 20.08,187.7 19.48,188.42 C18.16,190.04 16.84,191.54 15.4,193.04 C14.86,193.58 14.38,194.12 13.84,194.66 C12.22,196.28 10.48,197.78 8.68,199.22 C8.26,199.58 7.84,199.94 7.42,200.24 C5.44,201.74 3.34,203.18 1.18,204.44 C0.94,204.56 0.76,204.74 0.52,204.92 L113.62,318.02 L178.42,382.82 C198.94,403.34 232.24,403.34 252.82,382.82 C273.16,362.3 273.16,329 252.58,308.42 Z" id="Path" fill="#56616F"></path>
            </g>
            <g id="Layer_4" transform="translate(0.000000, 338.000000)" fill="#454F5A">
                <path d="M286,21.5 C275.62,27.74 263.56,31.4 250.6,31.4 C226.72,31.4 205.72,19.34 193.24,0.98 L16.12,178.1 C-4.4,198.62 -4.4,231.92 16.12,252.5 C36.64,273.02 69.94,273.02 90.52,252.5 L250.6,92.48 L312.04,153.92 C332.56,174.44 365.86,174.44 386.44,153.92 C391.96,148.4 395.92,141.98 398.44,135.14 L285.34,22.04 C285.58,21.8 285.76,21.62 286,21.5 Z" id="Path"></path>
            </g>
            <g id="Layer_3" transform="translate(99.000000, 0.000000)" fill="#5B6877">
                <path d="M386.02,16.36 C365.5,-4.16 332.2,-4.16 311.62,16.36 L151.6,176.38 L90.16,115 C69.64,94.48 36.34,94.48 15.76,115 C5.5,125.26 0.34,138.76 0.34,152.2 C0.34,165.64 5.5,179.14 15.76,189.4 L91.78,265.42 C103.78,244.84 126.04,230.92 151.6,230.92 C167.02,230.92 181.24,236.08 192.7,244.6 C193.42,245.14 194.14,245.68 194.86,246.28 C196.48,247.6 198.04,248.98 199.54,250.42 C200.08,250.96 200.62,251.44 201.1,251.98 C202.72,253.6 204.22,255.34 205.66,257.14 C206.02,257.56 206.38,257.98 206.74,258.46 C208.24,260.44 209.62,262.54 210.88,264.64 C211.06,264.88 211.24,265.12 211.36,265.36 L321.16,155.56 L385.96,90.76 C406.54,70.24 406.54,36.88 386.02,16.36 Z" id="Path"></path>
            </g>
        </g>
    </g>
</svg>