<?xml version="1.0" encoding="UTF-8"?>
<svg width="900px" height="500px" viewBox="0 0 900 500" version="1.1" xmlns="http://www.w3.org/2000/svg" xmlns:xlink="http://www.w3.org/1999/xlink">
    <title>Custom Preset 42</title>
    <defs>
        <linearGradient x1="1.5758547%" y1="50%" x2="97.9650775%" y2="50%" id="linearGradient-1">
            <stop stop-color="#3D4752" offset="0%"></stop>
            <stop stop-color="#556775" offset="100%"></stop>
        </linearGradient>
        <polygon id="path-2" points="0.14735752 226 0.14735752 0.06632608 947.172342 0.06632608 947.172342 226"></polygon>
        <path d="M-139.454603,18.9454947 C-139.454603,18.9454947 -149.042665,84.5444515 -91.6420015,130.560016 C-34.2413383,176.585407 31.4408169,149.740538 69.9011281,129.528277 C108.361438,109.316016 194.575407,56.0979291 223.025231,96.3062771 C251.465231,136.534277 194.712941,179.218799 194.712941,179.218799 C194.712941,179.218799 125.995221,246.53732 64.5667857,182.608799 L-17.1871623,251.470016 C-17.1871623,251.470016 13.8463297,289.487147 59.2324441,302.909582 L325.301169,85.2126251 C325.301169,85.2126251 324.07319,42.9211467 279.315801,-0.64772292 C234.558413,-44.2165925 163.0409,-33.0836357 107.123635,-3.02563572 C51.2063713,27.0028859 -2.9720743,52.4917555 -26.6180431,43.7661899 C-50.2640119,35.0307987 -56.4530279,-11.3581573 -8.8565511,-42.0253749 C38.7399257,-72.6925925 78.7916977,-64.7138101 102.378723,-43.3322445 L179.898599,-105.777027 C179.898599,-105.777027 136.349542,-158.287636 74.6362161,-155.546158 L146.684216,-214.09981 L372.60293,53.3171467 L372.60293,399.804625 L12.0092729,689.634886 L-205.136758,428.821059 L-205.136758,72.7629731 L-139.454603,18.9454947 Z" id="path-4"></path>
    </defs>
    <g id="Custom-Preset-42" stroke="none" stroke-width="1" fill="none" fill-rule="evenodd">
        <rect id="Rectangle" fill="url(#linearGradient-1)" x="-11" y="-15" width="936" height="534"></rect>
        <g id="SpaceNETlogo_WebColors" opacity="0.60672433" transform="translate(443.400000, 7.600000)" fill-rule="nonzero">
            <g id="Layer_2" transform="translate(228.000000, 124.000000)">
                <path d="M12.224,154.48 C11.792,154.912 11.408,155.344 10.976,155.776 C11.408,155.344 11.84,154.912 12.224,154.48 Z" id="Path" fill="#3E4651"></path>
                <path d="M5.792,160.24 C6.128,159.952 6.464,159.712 6.8,159.424 C6.512,159.664 6.176,159.952 5.792,160.24 Z" id="Path" fill="#3E4651"></path>
                <path d="M15.536,150.784 C16.016,150.16 16.496,149.584 16.928,148.96 C16.496,149.536 16.016,150.16 15.536,150.784 Z" id="Path" fill="#3E4651"></path>
                <path d="M202.064,246.736 L74.048,118.72 L123.2,69.568 C139.616,53.152 139.616,26.512 123.2,10.048 C118.784,5.632 113.648,2.464 108.176,0.4 L20.336,88.24 C20.24,88.048 20.048,87.856 19.952,87.664 C24.944,95.968 27.872,105.664 27.872,116.08 C27.872,128.416 23.792,139.744 16.976,148.912 C16.496,149.536 16.064,150.16 15.584,150.736 C14.528,152.032 13.472,153.232 12.32,154.432 C11.888,154.864 11.504,155.296 11.072,155.728 C9.776,157.024 8.384,158.224 6.944,159.376 C6.608,159.664 6.272,159.952 5.936,160.192 C4.352,161.392 2.672,162.544 0.944,163.552 C0.752,163.648 0.608,163.792 0.416,163.936 L90.896,254.416 L142.736,306.256 C159.152,322.672 185.792,322.672 202.256,306.256 C218.528,289.84 218.528,263.2 202.064,246.736 Z" id="Path" fill="#728090"></path>
            </g>
            <g id="Layer_4" transform="translate(0.000000, 270.400000)" fill="#5A6674">
                <path d="M228.8,17.2 C220.496,22.192 210.848,25.12 200.48,25.12 C181.376,25.12 164.576,15.472 154.592,0.784 L12.896,142.48 C-3.52,158.896 -3.52,185.536 12.896,202 C29.312,218.416 55.952,218.416 72.416,202 L200.48,73.984 L249.632,123.136 C266.048,139.552 292.688,139.552 309.152,123.136 C313.568,118.72 316.736,113.584 318.752,108.112 L228.272,17.632 C228.464,17.44 228.608,17.296 228.8,17.2 Z" id="Path"></path>
            </g>
            <g id="Layer_3" transform="translate(79.200000, 0.000000)" fill="#657383">
                <path d="M308.816,13.088 C292.4,-3.328 265.76,-3.328 249.296,13.088 L121.28,141.104 L72.128,92 C55.712,75.584 29.072,75.584 12.608,92 C4.4,100.208 0.272,111.008 0.272,121.76 C0.272,132.512 4.4,143.312 12.608,151.52 L73.424,212.336 C83.024,195.872 100.832,184.736 121.28,184.736 C133.616,184.736 144.992,188.864 154.16,195.68 C154.736,196.112 155.312,196.544 155.888,197.024 C157.184,198.08 158.432,199.184 159.632,200.336 C160.064,200.768 160.496,201.152 160.88,201.584 C162.176,202.88 163.376,204.272 164.528,205.712 C164.816,206.048 165.104,206.384 165.392,206.768 C166.592,208.352 167.696,210.032 168.704,211.712 C168.848,211.904 168.992,212.096 169.088,212.288 L256.928,124.448 L308.768,72.608 C325.232,56.192 325.232,29.504 308.816,13.088 Z" id="Path"></path>
            </g>
        </g>
        <g id="Clipped" transform="translate(62.000000, 131.500000)">
            <mask id="mask-3" fill="white">
                <use xlink:href="#path-2"></use>
            </mask>
            <g id="Path"></g>
            <mask id="mask-5" fill="white">
                <use xlink:href="#path-4"></use>
            </mask>
            <use id="Path" fill="#485663" xlink:href="#path-4"></use>
        </g>
    </g>
</svg>