<?xml version="1.0" encoding="UTF-8"?>
<svg width="515px" height="181px" viewBox="0 0 515 181" version="1.1" xmlns="http://www.w3.org/2000/svg" xmlns:xlink="http://www.w3.org/1999/xlink">
    <title>Custom Preset 39</title>
    <g id="Custom-Preset-39" stroke="none" stroke-width="1" fill="none" fill-rule="evenodd">
        <g id="SpaceNETlogo_WebColors" transform="translate(2.590000, 0.430000)">
            <g id="Layer_2" transform="translate(0.000000, 0.980000)">
                <path d="M433.73232,102.0474 C433.57356,102.20616 433.43244,102.36492 433.27368,102.52368 C433.43244,102.36492 433.5912,102.20616 433.73232,102.0474 Z" id="Path" fill="#3E4651" fill-rule="nonzero"></path>
                <path d="M431.36856,104.1642 C431.49204,104.05836 431.61552,103.97016 431.739,103.86432 C431.63316,103.95252 431.50968,104.05836 431.36856,104.1642 Z" id="Path" fill="#3E4651" fill-rule="nonzero"></path>
                <path d="M434.94948,100.68912 C435.12588,100.4598 435.30228,100.24812 435.46104,100.0188 C435.30228,100.23048 435.12588,100.4598 434.94948,100.68912 Z" id="Path" fill="#3E4651" fill-rule="nonzero"></path>
                <path d="M503.49852,135.95148 L456.45264,88.9056 L474.516,70.84224 C480.54888,64.80936 480.54888,55.01916 474.516,48.96864 C472.89312,47.34576 471.00564,46.18152 468.99468,45.423 L436.71348,77.7042 C436.6782,77.63364 436.60764,77.56308 436.57236,77.49252 C438.40692,80.54424 439.48296,84.10752 439.48296,87.9354 C439.48296,92.46888 437.98356,96.63192 435.47868,100.00116 C435.30228,100.23048 435.14352,100.4598 434.96712,100.67148 C434.57904,101.14776 434.19096,101.58876 433.7676,102.02976 C433.60884,102.18852 433.46772,102.34728 433.30896,102.50604 C432.83268,102.98232 432.32112,103.42332 431.79192,103.84668 C431.66844,103.95252 431.54496,104.05836 431.42148,104.14656 C430.83936,104.58756 430.22196,105.01092 429.58692,105.38136 C429.51636,105.41664 429.46344,105.46956 429.39288,105.52248 L462.64428,138.77388 L481.69548,157.82508 C487.72836,163.85796 497.51856,163.85796 503.56908,157.82508 C509.54904,151.7922 509.54904,142.002 503.49852,135.95148 Z" id="Path" fill="#00B3B3" fill-rule="nonzero"></path>
                <path d="M334.86012,54.52524 C332.8668,54.52524 332.17884,55.125 332.17884,57.11832 L332.17884,91.93968 C332.17884,99.3132 333.64296,104.41116 336.67704,107.18064 C339.62292,109.95012 344.73852,111.25548 352.0062,110.99088 C354.08772,110.90268 354.77568,110.30292 354.77568,108.2214 L354.77568,104.23476 C354.77568,102.15324 354.08772,101.55348 352.0062,101.55348 C348.19596,101.55348 345.60288,100.95372 344.29752,99.64836 C342.90396,98.36064 342.216,95.66172 342.216,91.58688 L342.216,74.1762 L352.0944,74.1762 C354.08772,74.1762 354.77568,73.48824 354.77568,71.49492 L354.77568,67.50828 C354.77568,65.51496 354.08772,64.9152 352.0944,64.9152 L342.216,64.9152 L342.216,57.11832 C342.216,55.125 341.52804,54.52524 339.53472,54.52524 L334.86012,54.52524 L334.86012,54.52524 Z" id="Path" fill="#00B3B3" fill-rule="nonzero"></path>
                <path d="M313.48044,82.85508 L293.47668,82.85508 L293.47668,80.94996 C293.47668,75.3228 297.02232,72.11232 303.53148,72.11232 C310.1112,72.11232 313.49808,75.3228 313.49808,80.94996 L313.49808,82.85508 L313.48044,82.85508 Z M283.42188,92.55708 C283.42188,103.8996 289.8252,111.09672 303.33744,111.09672 C312.43968,111.09672 318.6666,108.32724 322.05348,102.77064 C323.3412,100.77732 323.00604,99.4014 321.01272,98.44884 L317.97864,96.80832 C315.89712,95.67936 314.94456,95.85576 313.56864,97.84908 C311.57532,100.88316 308.20608,102.43548 303.35508,102.43548 C297.03996,102.43548 293.47668,99.4014 293.47668,93.77424 L293.47668,90.56376 L319.6368,90.56376 C322.22988,90.56376 323.53524,89.3466 323.53524,86.84172 L323.53524,81.54972 C323.53524,71.07156 316.69092,63.62748 303.53148,63.62748 C290.4426,63.62748 283.43952,70.2072 283.43952,82.34352 L283.43952,92.55708 L283.42188,92.55708 Z" id="Shape" fill="#00B3B3" fill-rule="nonzero"></path>
                <path d="M239.70996,66.57336 C236.94048,67.70232 236.32308,68.74308 236.32308,71.51256 L236.32308,107.11008 C236.32308,109.1034 237.01104,109.79136 239.00436,109.79136 L243.76716,109.79136 C245.76048,109.79136 246.36024,109.1034 246.36024,107.11008 L246.36024,74.7936 C246.36024,74.37024 246.53664,74.10564 246.97764,73.92924 C249.74712,73.15308 252.5166,72.80028 255.28608,72.80028 C261.6012,72.80028 264.72348,75.65796 264.72348,81.28512 L264.72348,107.09244 C264.72348,109.08576 265.32324,109.77372 267.31656,109.77372 L272.07936,109.77372 C274.07268,109.77372 274.76064,109.08576 274.76064,107.09244 L274.76064,81.02052 C274.76064,69.8544 268.86888,63.60984 256.7502,63.60984 C250.27632,63.62748 244.64916,64.58004 239.70996,66.57336" id="Path" fill="#00B3B3" fill-rule="nonzero"></path>
                <g id="Group" transform="translate(0.000000, 63.504000)" fill="#5C6D7E" fill-rule="nonzero">
                    <path d="M217.48356,19.35108 L197.4798,19.35108 L197.4798,17.44596 C197.4798,11.8188 201.02544,8.60832 207.5346,8.60832 C214.11432,8.60832 217.5012,11.8188 217.5012,17.44596 L217.5012,19.35108 L217.48356,19.35108 Z M187.425,29.05308 C187.425,40.3956 193.82832,47.59272 207.34056,47.59272 C216.4428,47.59272 222.66972,44.82324 226.0566,39.26664 C227.36196,37.27332 227.00916,35.8974 225.01584,34.94484 L221.98176,33.30432 C219.90024,32.17536 218.94768,32.35176 217.57176,34.34508 C215.57844,37.37916 212.2092,38.93148 207.3582,38.93148 C201.04308,38.93148 197.4798,35.8974 197.4798,30.27024 L197.4798,27.05976 L223.63992,27.05976 C226.25064,27.05976 227.53836,25.8426 227.53836,23.33772 L227.53836,18.04572 C227.53836,7.56756 220.69404,0.12348 207.5346,0.12348 C194.44572,0.12348 187.44264,6.7032 187.44264,18.83952 L187.44264,29.05308 L187.425,29.05308 Z" id="Shape"></path>
                    <path d="M112.82544,0.12348 C103.9878,0.12348 98.00784,3.15756 94.9032,9.13752 C93.95064,10.86624 94.4622,12.1716 96.36732,13.03596 L99.8424,14.51772 C101.83572,15.20568 102.25908,15.02928 103.56444,13.21236 C105.38136,10.44288 108.41544,9.04932 112.66668,9.04932 C118.91124,9.04932 121.32792,11.9952 121.32792,17.62236 L121.32792,20.05668 C116.38872,19.79208 113.61924,19.61568 113.00184,19.61568 C98.8722,19.61568 93.35088,23.24952 93.35088,33.56892 C93.35088,38.33172 94.7268,41.87736 97.49628,44.13528 C100.26576,46.4814 105.29316,47.59272 112.66668,47.59272 C119.5992,47.59272 124.803,46.81656 128.26044,45.3348 C130.67712,44.29404 131.38272,43.42968 131.38272,40.3956 L131.38272,17.95752 C131.36508,6.10344 125.20872,0.12348 112.82544,0.12348 M121.32792,37.37916 C121.32792,37.97892 120.97512,38.33172 120.37536,38.59632 C118.29384,39.01968 115.43616,39.28428 111.71412,39.28428 C105.38136,39.28428 103.56444,37.37916 103.56444,33.48072 C103.56444,29.65284 105.64596,27.83592 111.89052,27.83592 C112.15512,27.83592 115.2774,28.01232 121.34556,28.25928 L121.34556,37.37916 L121.32792,37.37916 Z" id="Shape"></path>
                    <path d="M66.80268,0.12348 C60.1524,0.12348 54.61344,0.98784 50.04468,2.62836 C47.29284,3.75732 46.67544,4.78044 46.67544,7.54992 L46.67544,62.49852 C46.67544,64.49184 47.3634,65.1798 49.33908,65.1798 L54.10188,65.1798 C56.07756,65.1798 56.69496,64.49184 56.69496,62.49852 L56.69496,45.89928 C60.6816,46.94004 63.69804,47.4516 65.77956,47.4516 C78.65676,47.4516 85.04244,41.40108 85.04244,29.38824 L85.04244,17.5518 C85.0248,6.2622 78.99192,0.12348 66.80268,0.12348 M75.02292,29.07072 C75.02292,35.20944 71.74188,38.31408 65.07396,38.31408 C62.83368,38.31408 60.0642,37.87308 56.67732,37.02636 L56.67732,11.36016 C56.67732,10.8486 56.94192,10.4958 57.54168,10.2312 C59.7996,9.63144 62.39268,9.27864 65.32092,9.27864 C71.81244,9.27864 75.00528,12.13632 75.00528,17.83404 L75.00528,29.07072 L75.02292,29.07072 Z" id="Shape"></path>
                    <path d="M0.5292,14.05908 C0.5292,18.48672 2.08152,21.76776 4.16304,23.60232 C5.2038,24.55488 6.59736,25.33104 8.23788,25.94844 C11.60712,27.2538 13.95324,27.58896 18.02808,28.02996 C25.7544,28.80612 28.43568,29.75868 28.43568,33.56892 C28.43568,36.9558 25.4016,38.68452 19.24524,38.68452 C14.04144,38.68452 10.7604,37.1322 9.45504,33.92172 C8.67888,31.9284 7.63812,31.5756 5.9094,32.2812 L2.01096,33.49836 C0.19404,34.09812 -0.40572,35.31528 0.28224,37.1322 C2.96352,44.13528 9.45504,47.61036 19.59804,47.61036 C31.64616,47.61036 38.31408,41.895 38.31408,33.14556 C38.31408,23.44356 32.42232,20.32128 20.6388,19.19232 C13.10652,18.50436 10.4958,17.64 10.4958,13.82976 C10.4958,10.70748 13.19472,9.15516 18.64548,9.15516 C23.23188,9.15516 26.3718,10.63692 28.01232,13.65336 C29.14128,15.47028 29.65284,15.64668 31.64616,14.85288 L35.5446,13.30056 C37.36152,12.4362 37.87308,11.13084 36.92052,9.40212 C33.90408,3.2634 27.65952,0.141076613 18.39852,0.141076613 C6.68556,0.12348 0.5292,5.48604 0.5292,14.05908" id="Path"></path>
                    <path d="M177.40548,34.94484 L174.3714,33.30432 C172.28988,32.17536 171.33732,32.35176 169.9614,34.34508 C167.96808,37.37916 164.59884,38.93148 159.74784,38.93148 C153.43272,38.93148 149.86944,35.8974 149.86944,30.27024 L149.86944,28.18872 L149.86944,28.18872 L149.86944,17.44596 C149.86944,11.8188 153.41508,8.78472 159.74784,8.78472 C164.59884,8.78472 167.98572,10.33704 169.97904,13.37112 C171.3726,15.36444 172.32516,15.54084 174.38904,14.41188 L177.42312,12.77136 C179.41644,11.8188 179.76924,10.42524 178.46388,8.44956 C175.09464,2.9106 168.85008,0.14112 159.74784,0.14112 C146.2356,0.14112 139.83228,7.33824 139.83228,18.68076 L139.83228,28.20636 L139.83228,28.20636 L139.83228,29.07072 C139.83228,40.41324 146.2356,47.61036 159.74784,47.61036 C168.85008,47.61036 175.077,44.84088 178.46388,39.30192 C179.73396,37.29096 179.3988,35.8974 177.40548,34.94484" id="Path"></path>
                </g>
                <path d="M278.16516,145.65348 L283.26312,142.68996 C284.30388,144.7362 285.8562,146.35908 288.73152,146.35908 C291.69504,146.35908 293.706,144.40104 293.706,141.50808 C293.706,138.70332 291.65976,136.99224 288.69624,136.99224 C287.3556,136.99224 286.22664,137.4156 285.39756,137.9448 L282.64572,133.76412 L289.84284,128.27808 L279.92916,128.27808 L279.92916,122.75676 L297.90432,122.75676 L297.90432,128.2428 L292.43592,132.42348 C296.91648,133.25256 299.7036,136.76292 299.7036,141.36696 C299.7036,147.31164 295.31124,151.898133 288.66096,151.898133 C283.51008,151.91568 280.1232,149.4108 278.16516,145.65348" id="Path" fill="#00B3B3" fill-rule="nonzero"></path>
                <rect id="Rectangle" fill="#00B3B3" fill-rule="nonzero" x="302.06736" y="145.3536" width="6.01524" height="6.05052"></rect>
                <path d="M310.6404,132.741 C310.6404,126.88452 314.97984,122.45688 321.41844,122.45688 C327.89232,122.45688 332.2494,126.88452 332.2494,132.741 L332.2494,141.6492 C332.2494,147.50568 327.90996,151.89804 321.41844,151.89804 C314.97984,151.89804 310.6404,147.50568 310.6404,141.6492 L310.6404,132.741 Z M326.26944,132.77628 C326.26944,129.97152 324.2232,128.04876 321.41844,128.04876 C318.61368,128.04876 316.56744,129.97152 316.56744,132.77628 L316.56744,141.59628 C316.56744,144.40104 318.61368,146.3238 321.41844,146.3238 C324.2232,146.3238 326.26944,144.40104 326.26944,141.59628 L326.26944,132.77628 Z" id="Shape" fill="#00B3B3" fill-rule="nonzero"></path>
                <rect id="Rectangle" x="0" y="0" width="508.032" height="177.82884"></rect>
            </g>
            <g id="Layer_4" transform="translate(344.960000, 99.764000)" fill="#3E4651" fill-rule="nonzero">
                <path d="M84.574,6.615 C81.52228,8.44956 77.97664,9.5256 74.1664,9.5256 C67.14568,9.5256 60.97168,5.97996 57.30256,0.58212 L5.22928,52.6554 C-0.8036,58.68828 -0.8036,68.47848 5.22928,74.529 C11.26216,80.56188 21.05236,80.56188 27.10288,74.529 L74.1664,27.48312 L92.22976,45.54648 C98.26264,51.57936 108.05284,51.57936 114.10336,45.54648 C115.72624,43.9236 116.89048,42.03612 117.63136,40.02516 L84.37996,6.77376 C84.45052,6.7032 84.50344,6.65028 84.574,6.615 Z" id="Path"></path>
            </g>
            <g id="Layer_3" transform="translate(373.968000, 0.000000)" fill="#F16231" fill-rule="nonzero">
                <path d="M114.07788,5.49584 C108.045,-0.53704 98.2548,-0.53704 92.20428,5.49584 L45.1584,52.54172 L27.09504,34.496 C21.06216,28.46312 11.27196,28.46312 5.22144,34.496 C2.205,37.51244 0.68796,41.48144 0.68796,45.4328 C0.68796,49.38416 2.205,53.35316 5.22144,56.3696 L27.57132,78.71948 C31.09932,72.66896 37.64376,68.57648 45.1584,68.57648 C49.69188,68.57648 53.87256,70.09352 57.2418,72.5984 C57.45348,72.75716 57.66516,72.91592 57.87684,73.09232 C58.35312,73.4804 58.81176,73.88612 59.25276,74.30948 C59.41152,74.46824 59.57028,74.60936 59.7114,74.76812 C60.18768,75.2444 60.62868,75.75596 61.05204,76.28516 C61.15788,76.40864 61.26372,76.53212 61.36956,76.67324 C61.81056,77.25536 62.21628,77.87276 62.58672,78.49016 C62.63964,78.56072 62.69256,78.63128 62.72784,78.70184 L95.00904,46.42064 L114.06024,27.36944 C120.11076,21.33656 120.11076,11.52872 114.07788,5.49584 Z" id="Path"></path>
            </g>
        </g>
    </g>
</svg>